# This file uses centimeters as units for non-parametric coordinates.

v -0.042482 0.042482 0.168709
v 0.042482 0.042482 0.168709
v -0.029488 0.029488 0.002194
v 0.029488 0.029488 0.002194
v -0.029488 -0.029488 0.002194
v 0.029488 -0.029488 0.002194
v -0.042482 -0.042482 0.168709
v 0.042482 -0.042482 0.168709
v 0.000000 0.057351 0.183577
v 0.000000 0.039809 -0.008126
v 0.000000 -0.039809 -0.008126
v 0.000000 -0.057351 0.183577
v -0.057351 0.057351 0.126227
v 0.057351 0.057351 0.126227
v -0.039809 -0.000000 -0.008126
v 0.039809 -0.000000 -0.008126
v -0.057351 -0.057351 0.126227
v 0.057351 -0.057351 0.126227
v -0.057351 0.000000 0.183577
v 0.057351 0.000000 0.183577
v 0.000000 0.076468 0.126227
v 0.000000 -0.076468 0.126227
v 0.000000 0.000000 0.202694
v 0.076468 0.000000 0.126227
v -0.076468 0.000000 0.126227
v 0.000000 0.025135 -0.067655
v 0.028317 0.019917 -0.050119
v 0.035736 0.000000 -0.067655
v 0.028317 -0.019917 -0.050119
v -0.000000 -0.025135 -0.067655
v -0.028317 -0.019917 -0.050119
v -0.035736 -0.000000 -0.067655
v -0.028317 0.019917 -0.050119
v 0.000000 0.009941 -0.176303
v 0.007841 0.007877 -0.175824
v 0.009896 -0.000000 -0.170030
v 0.007841 -0.007877 -0.175824
v 0.000000 -0.009941 -0.176303
v -0.007841 -0.007877 -0.175824
v -0.009896 -0.000000 -0.170030
v -0.007841 0.007877 -0.175824
v 0.006996 0.004921 -0.076586
v -0.000000 0.006210 -0.076586
v -0.006996 0.004921 -0.076586
v -0.008829 -0.000000 -0.076586
v -0.006996 -0.004921 -0.076586
v -0.000000 -0.006210 -0.076586
v 0.006996 -0.004921 -0.076586
v 0.008829 -0.000000 -0.076586
v 0.000000 0.010482 -0.189630
v 0.008305 0.008417 -0.189118
v 0.010360 -0.000000 -0.196056
v 0.000000 0.000000 -0.197336
v 0.008305 -0.008417 -0.189118
v -0.000000 -0.010482 -0.189630
v -0.008305 -0.008417 -0.189118
v -0.010360 0.000000 -0.196056
v -0.008305 0.008417 -0.189118
v 0.012421 0.010623 -0.177640
v 0.018082 0.000000 -0.169092
v 0.018503 -0.000000 -0.202694
v 0.012755 0.011164 -0.194805
v 0.012421 -0.010623 -0.175068
v 0.012755 -0.011164 -0.188363
v -0.018082 -0.000000 -0.169092
v -0.012303 -0.010623 -0.175533
v -0.018503 0.000000 -0.202694
v -0.012755 -0.011164 -0.188363
v -0.012421 0.010623 -0.177640
v -0.012755 0.011164 -0.194805
v 0.023657 0.008011 -0.183254
v 0.029002 -0.000284 -0.178060
v 0.029586 0.000690 -0.192641
v 0.023924 0.008221 -0.188632
v 0.023628 -0.008036 -0.181434
v 0.023920 -0.008187 -0.183727
v -0.029057 -0.000244 -0.178065
v -0.023538 -0.008052 -0.181725
v -0.029587 0.000681 -0.192621
v -0.023919 -0.008212 -0.183688
v -0.023657 0.008011 -0.183254
v -0.023924 0.008221 -0.188632
vt 0.214219 0.108951
vt 0.300784 0.117548
vt 0.315041 0.201651
vt 0.212996 0.206338
vt 0.276904 0.448074
vt 0.210097 0.461396
vt 0.143058 0.446780
vt 0.111079 0.199173
vt 0.127481 0.115391
vt 0.214933 0.837149
vt 0.230318 0.838386
vt 0.229739 0.861161
vt 0.614046 0.985493
vt 0.634504 0.961084
vt 0.614011 0.961432
vt 0.593543 0.961051
vt 0.588229 0.982250
vt 0.199144 0.838560
vt 0.614394 0.517787
vt 0.684666 0.492440
vt 0.746048 0.211857
vt 0.614571 0.219550
vt 0.713613 0.107460
vt 0.614845 0.081649
vt 0.516151 0.107097
vt 0.483274 0.211407
vt 0.544291 0.492248
vt 0.755059 0.047281
vt 0.215692 0.000977
vt 0.073386 0.053346
vt 0.425257 0.195577
vt 0.712769 0.514358
vt 0.427906 0.185397
vt 0.088640 0.479364
vt 0.265589 0.550378
vt 0.208737 0.575776
vt 0.702846 0.661498
vt 0.682732 0.617431
vt 0.614301 0.659384
vt 0.546025 0.617264
vt 0.125766 0.593978
vt 0.154193 0.549624
vt 0.224525 0.615566
vt 0.209928 0.615930
vt 0.234541 0.617744
vt 0.631606 0.683045
vt 0.614384 0.682887
vt 0.597177 0.683006
vt 0.592568 0.683534
vt 0.194896 0.616492
vt 0.231947 0.810612
vt 0.215651 0.811517
vt 0.199417 0.810534
vt 0.183954 0.797338
vt 0.594732 0.928190
vt 0.614055 0.928570
vt 0.633403 0.928223
vt 0.638755 0.916869
vt 0.261941 0.833609
vt 0.686277 0.936953
vt 0.687838 0.974051
vt 0.260849 0.843491
vt 0.672316 0.942150
vt 0.673026 0.947794
vt 0.555995 0.942770
vt 0.149399 0.820033
vt 0.152055 0.850788
vt 0.555054 0.947590
vt 0.167610 0.830028
vt 0.167823 0.839801
vt 0.659126 0.914531
vt 0.241282 0.817834
vt 0.240164 0.848037
vt 0.244313 0.873811
vt 0.644582 0.925261
vt 0.645362 0.958012
vt 0.168913 0.800155
vt 0.583816 0.926361
vt 0.582657 0.957962
vt 0.567895 0.998954
vt 0.190130 0.817407
vt 0.188513 0.846534
vt 0.541777 0.936863
vt 0.540274 0.973881
vt 0.175754 0.871051
vt 0.569137 0.914454
vt 0.281539 0.827431
vt 0.272937 0.859433
vt 0.660157 0.999023
vt 0.264229 0.801521
vt 0.196815 0.862618
vt 0.589505 0.916827
vt 0.639869 0.982290
vt 0.246864 0.796305
vt 0.213620 0.861285
vt 0.636273 0.683584
vt 0.184781 0.618716
vt 0.526034 0.661292
vt 0.290477 0.595266
vt 0.516474 0.514094
vt 0.331785 0.481296
vt 0.000977 0.190182
vt 0.475326 0.046746
vt 0.802095 0.186048
vt 0.356557 0.057007
vt 0.615273 0.000977
vn 0.000000 0.707107 0.707107
vn 0.577350 0.577350 0.577350
vn 0.704396 0.704396 -0.087478
vn -0.000000 0.996749 -0.080563
vn 0.672143 0.689418 -0.270050
vn -0.000000 0.965280 -0.261217
vn -0.672143 0.689418 -0.270050
vn -0.704396 0.704396 -0.087478
vn -0.577350 0.577350 0.577350
vn 0.000001 0.913180 -0.407557
vn -0.199951 0.882888 -0.424886
vn -0.338955 -0.121039 -0.932984
vn 0.000001 0.000000 -1.000000
vn -0.109156 -0.864413 -0.490791
vn -0.000002 -0.913180 -0.407557
vn 0.107648 -0.863154 -0.493333
vn 0.338953 -0.121033 -0.932985
vn 0.199949 0.882887 -0.424888
vn 0.000000 -0.965280 -0.261217
vn 0.672143 -0.689418 -0.270050
vn 0.704396 -0.704396 -0.087478
vn 0.000000 -0.996749 -0.080563
vn 0.577350 -0.577350 0.577350
vn 0.000000 -0.707107 0.707107
vn -0.577350 -0.577350 0.577350
vn -0.704396 -0.704396 -0.087478
vn -0.672143 -0.689418 -0.270050
vn 0.707107 -0.000000 0.707107
vn 0.000000 0.000000 1.000000
vn -0.707107 0.000000 0.707107
vn 0.996749 -0.000000 -0.080563
vn 0.972732 0.000000 -0.231933
vn -0.996749 0.000000 -0.080563
vn -0.972732 -0.000000 -0.231933
vn 0.665001 0.714813 -0.216369
vn 0.000001 0.913574 -0.406673
vn 0.920807 0.000000 -0.390020
vn 0.665001 -0.714813 -0.216369
vn 0.000001 -0.913574 -0.406673
vn -0.665002 -0.714813 -0.216368
vn -0.920809 -0.000000 -0.390014
vn -0.665002 0.714813 -0.216368
vn 0.399177 0.553341 -0.731075
vn -0.000004 0.548186 -0.836357
vn 0.418663 -0.000000 -0.908142
vn 0.399177 -0.553341 -0.731075
vn -0.000004 -0.548186 -0.836357
vn -0.399179 -0.553346 -0.731070
vn -0.418670 -0.000000 -0.908138
vn -0.399179 0.553346 -0.731070
vn -0.000000 0.999403 0.034545
vn 0.645263 0.763432 0.028405
vn 0.428642 0.898184 0.097627
vn 0.000000 0.999352 0.035982
vn -0.645265 0.763430 0.028401
vn -0.428641 0.898185 0.097624
vn -0.999892 0.000000 0.014680
vn -0.994558 0.007774 0.103890
vn -0.645265 -0.763431 0.028401
vn -0.422612 -0.901670 0.091597
vn -0.000000 -0.999403 0.034545
vn 0.000001 -0.999352 0.035982
vn 0.645263 -0.763432 0.028405
vn 0.419268 -0.903369 0.090219
vn 0.999892 0.000000 0.014687
vn 0.994499 0.009160 0.104348
vn 0.512245 0.809640 0.286511
vn 0.808782 0.083790 0.582109
vn 0.804616 -0.172713 -0.568123
vn 0.529399 0.813462 -0.240863
vn 0.546135 -0.765933 0.339239
vn 0.524240 -0.815198 -0.246218
vn -0.538036 -0.770130 0.342662
vn -0.805808 0.073118 0.587646
vn -0.803895 -0.173664 -0.568853
vn -0.527147 -0.812330 -0.249470
vn -0.510635 0.810811 0.286072
vn -0.528810 0.813525 -0.241945
vn 0.440982 0.083640 0.893610
vn 0.102775 0.904174 0.414616
vn -0.046556 0.831628 -0.553378
vn 0.353243 -0.197253 -0.914500
vn 0.093227 -0.834854 0.542519
vn 0.069112 -0.913907 -0.399997
vn -0.443316 0.067247 0.893839
vn -0.092911 -0.841524 0.532169
vn -0.071290 -0.911333 -0.405451
vn -0.353756 -0.197727 -0.914200
vn -0.102041 0.904300 0.414522
vn 0.046137 0.831565 -0.553508
f 9/1/1 2/2/2 14/3/3 21/4/4
f 14/3/3 4/5/5 10/6/6 21/4/4
f 10/6/6 3/7/7 13/8/8 21/4/4
f 13/8/8 1/9/9 9/1/1 21/4/4
f 50/10/10 51/11/11 52/12/12 53/95/13
f 52/93/12 54/14/14 55/15/15 53/13/13
f 55/15/15 56/16/16 57/17/17 53/13/13
f 57/91/17 58/18/18 50/10/10 53/95/13
f 11/19/19 6/20/20 18/21/21 22/22/22
f 18/21/21 8/23/23 12/24/24 22/22/22
f 12/24/24 7/25/25 17/26/26 22/22/22
f 17/26/26 5/27/27 11/19/19 22/22/22
f 12/24/24 8/23/23 20/28/28 23/106/29
f 20/105/28 2/2/2 9/1/1 23/29/29
f 9/1/1 1/9/9 19/30/30 23/29/29
f 19/103/30 7/25/25 12/24/24 23/106/29
f 20/28/28 8/23/23 18/21/21 24/104/31
f 18/21/21 6/20/20 16/32/32 24/104/31
f 16/101/32 4/5/5 14/3/3 24/31/31
f 14/3/3 2/2/2 20/105/28 24/31/31
f 19/30/30 1/9/9 13/8/8 25/102/33
f 13/8/8 3/7/7 15/34/34 25/102/33
f 15/100/34 5/27/27 17/26/26 25/33/33
f 17/26/26 7/25/25 19/103/30 25/33/33
f 10/6/6 4/5/5 27/35/35 26/36/36
f 4/5/5 16/101/32 28/99/37 27/35/35
f 16/32/32 6/20/20 29/38/38 28/37/37
f 6/20/20 11/19/19 30/39/39 29/38/38
f 11/19/19 5/27/27 31/40/40 30/39/39
f 5/27/27 15/100/34 32/98/41 31/40/40
f 15/34/34 3/7/7 33/42/42 32/41/41
f 3/7/7 10/6/6 26/36/36 33/42/42
f 26/36/36 27/35/35 42/43/43 43/44/44
f 27/35/35 28/99/37 49/45/45 42/43/43
f 28/37/37 29/38/38 48/46/46 49/96/45
f 29/38/38 30/39/39 47/47/47 48/46/46
f 30/39/39 31/40/40 46/48/48 47/47/47
f 31/40/40 32/98/41 45/49/49 46/48/48
f 32/41/41 33/42/42 44/50/50 45/97/49
f 33/42/42 26/36/36 43/44/44 44/50/50
f 43/44/51 42/43/52 35/51/53 34/52/54
f 44/50/55 43/44/51 34/52/54 41/53/56
f 45/97/57 44/50/55 41/53/56 40/54/58
f 46/48/59 45/49/57 40/92/58 39/55/60
f 47/47/61 46/48/59 39/55/60 38/56/62
f 48/46/63 47/47/61 38/56/62 37/57/64
f 49/96/65 48/46/63 37/57/64 36/58/66
f 42/43/52 49/45/65 36/94/66 35/51/53
f 34/52/54 35/51/53 51/11/11 50/10/10
f 71/59/67 72/87/68 73/88/69 74/62/70
f 72/60/68 75/63/71 76/64/72 73/61/69
f 37/57/64 38/56/62 55/15/15 54/14/14
f 38/56/62 39/55/60 56/16/16 55/15/15
f 78/65/73 77/83/74 79/84/75 80/68/76
f 77/66/74 81/69/77 82/70/78 79/67/75
f 41/53/56 34/52/54 50/10/10 58/18/18
f 35/51/53 36/94/66 60/90/79 59/72/80
f 52/12/12 51/11/11 62/73/81 61/74/82
f 51/11/11 35/51/53 59/72/80 62/73/81
f 36/58/66 37/57/64 63/75/83 60/71/79
f 37/57/64 54/14/14 64/76/84 63/75/83
f 54/14/14 52/93/12 61/89/82 64/76/84
f 39/55/60 40/92/58 65/86/85 66/78/86
f 57/17/17 56/16/16 68/79/87 67/80/88
f 56/16/16 39/55/60 66/78/86 68/79/87
f 40/54/58 41/53/56 69/81/89 65/77/85
f 41/53/56 58/18/18 70/82/90 69/81/89
f 58/18/18 57/91/17 67/85/88 70/82/90
f 59/72/80 60/90/79 72/87/68 71/59/67
f 61/74/82 62/73/81 74/62/70 73/88/69
f 62/73/81 59/72/80 71/59/67 74/62/70
f 60/71/79 63/75/83 75/63/71 72/60/68
f 63/75/83 64/76/84 76/64/72 75/63/71
f 64/76/84 61/89/82 73/61/69 76/64/72
f 66/78/86 65/86/85 77/83/74 78/65/73
f 67/80/88 68/79/87 80/68/76 79/84/75
f 68/79/87 66/78/86 78/65/73 80/68/76
f 65/77/85 69/81/89 81/69/77 77/66/74
f 69/81/89 70/82/90 82/70/78 81/69/77
f 70/82/90 67/85/88 79/67/75 82/70/78
