# This file uses centimeters as units for non-parametric coordinates.

v -0.003657 1.068698 0.022171
v 0.000346 1.068698 0.022171
v -0.003657 1.068698 -0.022172
v 0.000346 1.068698 -0.022172
v -0.003657 0.213738 -0.015323
v 0.000346 0.213738 -0.015323
v -0.003657 0.213738 0.015321
v 0.000346 0.213738 0.015321
v 0.000346 1.167188 -0.000001
v -0.003657 1.167188 -0.000001
v -0.005309 0.213738 -0.000001
v 0.001997 0.213738 -0.000001
v -0.001656 1.083766 -0.027349
v -0.001656 0.186665 -0.018900
v -0.001656 0.186665 -0.000001
v -0.001656 0.186665 0.018898
v -0.001656 1.083766 0.027347
v -0.001656 1.204128 -0.000001
v 0.016325 0.203920 0.004143
v -0.001656 0.203920 0.008285
v -0.019637 0.203920 0.004143
v -0.019636 0.203920 -0.004143
v -0.001656 0.203920 -0.008286
v 0.016325 0.203920 -0.004143
v 0.016325 0.032094 0.010380
v -0.001656 0.032094 0.020762
v -0.019637 0.032094 0.010380
v -0.019636 0.032094 -0.010382
v -0.001656 0.032094 -0.020762
v 0.016325 0.032094 -0.010382
v -0.001656 0.032094 -0.000000
v 0.016325 0.063650 -0.010382
v -0.001656 0.063650 -0.020762
v -0.019636 0.063650 -0.010382
v -0.019637 0.063650 0.010380
v -0.001656 0.063650 0.020762
v 0.016325 0.063650 0.010380
v -0.009613 0.051943 -0.030465
v -0.024059 0.051943 -0.022124
v -0.011561 0.032094 -0.037920
v -0.029542 0.032094 -0.027539
v -0.024059 0.051943 0.022123
v -0.009613 0.051943 0.030463
v -0.029542 0.032094 0.027537
v -0.011561 0.032094 0.037919
v 0.028706 0.051943 0.008339
v 0.028706 0.051943 -0.008341
v 0.036136 0.032094 0.010380
v 0.036136 0.032094 -0.010382
v -0.027960 0.013197 -0.022127
v -0.007905 0.013197 -0.033705
v -0.026798 0.013197 -0.025192
v -0.010349 0.013197 -0.034689
v -0.008079 0.013197 0.033621
v -0.027786 0.013197 0.022242
v -0.010349 0.013197 0.034687
v -0.026798 0.013197 0.025191
v 0.030433 0.013197 -0.011481
v 0.030433 0.013197 0.011496
v 0.033284 0.013197 -0.009497
v 0.033284 0.013197 0.009496
v 0.009996 0.184125 -0.006728
v -0.001656 0.184125 -0.013455
v -0.013307 0.184125 -0.006728
v -0.013307 0.184125 0.006726
v -0.001656 0.184125 0.013454
v 0.009996 0.184125 0.006726
v 0.022434 0.203920 0.032793
v -0.001656 0.203920 0.046487
v -0.001656 0.166137 0.116489
v 0.010231 0.166137 0.082173
v -0.013543 0.166137 0.082173
v -0.025746 0.203920 0.032793
v -0.001656 0.166137 -0.116490
v -0.013543 0.166137 -0.082175
v -0.025745 0.203920 -0.032794
v -0.001656 0.203920 -0.046488
v 0.022434 0.203920 -0.032794
v 0.010231 0.166137 -0.082175
v -0.020307 0.023387 -0.015666
v -0.004816 0.023387 -0.024610
v -0.024765 0.023387 -0.023533
v -0.009400 0.023387 -0.032404
v -0.004927 0.023387 0.024545
v -0.020197 0.023387 0.015728
v -0.009400 0.023387 0.032403
v -0.024765 0.023387 0.023532
v 0.022318 0.023387 -0.008887
v 0.022318 0.023387 0.008886
v 0.031359 0.023387 -0.008871
v 0.031359 0.023387 0.008871
v 0.013161 0.069465 -0.008555
v -0.001656 0.069465 -0.017109
v -0.016472 0.069465 -0.008555
v -0.016472 0.069465 0.008553
v -0.001656 0.069465 0.017108
v 0.013161 0.069465 0.008553
vt 0.147666 0.863112
vt 0.162220 0.878192
vt 0.084070 0.992548
vt 0.085304 0.956699
vt 0.028164 0.859113
vt 0.012848 0.873016
vt 0.239796 0.014502
vt 0.078760 0.030927
vt 0.195510 0.012928
vt 0.142405 0.033208
vt 0.110583 0.032068
vt 0.217653 0.013715
vt 0.268718 0.011242
vt 0.163778 0.007647
vt 0.238762 0.962090
vt 0.176793 0.864087
vt 0.185047 0.034728
vt 0.216866 0.035858
vt 0.296267 0.868091
vt 0.248686 0.036988
vt 0.801017 0.208405
vt 0.751216 0.180032
vt 0.746740 0.009085
vt 0.903782 0.117246
vt 0.699818 0.071129
vt 0.699674 0.207231
vt 0.717377 0.270093
vt 0.717510 0.293710
vt 0.661989 0.293540
vt 0.661866 0.269447
vt 0.753867 0.554467
vt 0.598198 0.447023
vt 0.700393 0.355204
vt 0.749837 0.383507
vt 0.801248 0.356502
vt 0.901309 0.448943
vt 0.839197 0.270503
vt 0.839366 0.294634
vt 0.783738 0.293543
vt 0.783673 0.269907
vt 0.750360 0.258554
vt 0.750865 0.304776
vt 0.325676 0.215378
vt 0.429697 0.155339
vt 0.441878 0.296568
vt 0.562423 0.231985
vt 0.562408 0.352091
vt 0.429667 0.428710
vt 0.325662 0.368645
vt 0.709554 0.877160
vt 0.780571 0.882664
vt 0.801789 0.983384
vt 0.573206 0.861767
vt 0.633617 0.847133
vt 0.664239 0.899906
vt 0.611792 0.935294
vt 0.708340 0.750010
vt 0.668300 0.808629
vt 0.570086 0.778168
vt 0.788141 0.638992
vt 0.771676 0.698909
vt 0.710768 0.699608
vt 0.704734 0.636551
vt 0.819522 0.812310
vt 0.788488 0.748171
vt 0.863117 0.677554
vt 0.927303 0.773469
vt 0.874757 0.939073
vt 0.831532 0.893563
vt 0.861942 0.839863
vt 0.919246 0.866978
vt 0.571982 0.346564
vt 0.513688 0.899605
vt 0.558132 0.969437
vt 0.557601 0.979683
vt 0.420124 0.149812
vt 0.786753 0.569969
vt 0.703072 0.571278
vt 0.692345 0.564594
vt 0.325663 0.379699
vt 0.935227 0.970169
vt 0.974680 0.897616
vt 0.986901 0.892159
vt 0.534729 0.829929
vt 0.623899 0.986558
vt 0.545179 0.872779
vt 0.593207 0.954704
vt 0.836548 0.622150
vt 0.657032 0.621162
vt 0.794228 0.609866
vt 0.700309 0.609959
vt 0.866633 0.987608
vt 0.956526 0.833864
vt 0.898279 0.956486
vt 0.944412 0.876375
vt 0.868102 0.267680
vt 0.633090 0.296521
vt 0.301023 0.524000
vt 0.608946 0.687192
vt 0.239350 0.998344
vt 0.311557 0.883346
vt 0.111376 0.009925
vt 0.133519 0.010719
vt 0.058820 0.004042
vt 0.089234 0.009131
vt 0.563717 0.684680
vt 0.518449 0.682742
vt 0.531371 0.526242
vt 0.588987 0.528652
vt 0.646544 0.531802
vt 0.337449 0.681006
vt 0.382676 0.680552
vt 0.358563 0.523454
vt 0.416146 0.523646
vt 0.427947 0.680679
vt 0.473198 0.681411
vt 0.473749 0.524576
vt 0.325676 0.204324
vt 0.325676 0.204324
vt 0.325663 0.379699
vt 0.937467 0.983977
vt 0.571996 0.237512
vt 0.571996 0.237512
vt 0.420124 0.149812
vt 0.794595 0.563625
vt 0.420094 0.434236
vt 0.420094 0.434236
vt 0.571982 0.346564
vt 0.501643 0.893371
vt 0.622024 0.675296
vt 0.686937 0.989195
vt 0.718371 0.858303
vt 0.770385 0.861830
vt 0.691408 0.810143
vt 0.720417 0.766918
vt 0.775674 0.767487
vt 0.798772 0.814252
vt 0.800879 0.492567
vt 0.542103 0.501482
vt 0.956018 0.504819
vt 0.708827 0.490434
vt 0.868219 0.298356
vt 0.598637 0.115759
vt 0.960150 0.063062
vt 0.543466 0.060436
vt 0.791945 0.072989
vt 0.633012 0.266017
vn -0.971901 0.051948 0.229586
vn -0.971901 0.051948 0.229586
vn -0.971901 0.051948 0.229586
vn -0.971901 0.051948 0.229586
vn -0.911282 -0.003596 -0.411767
vn -0.911282 -0.003596 -0.411767
vn -0.911282 -0.003596 -0.411767
vn -0.911282 -0.003596 -0.411767
vn -0.993769 -0.100611 0.047973
vn -0.993769 -0.100611 0.047973
vn -0.993769 -0.100611 0.047973
vn -0.993769 -0.100611 0.047973
vn -0.911282 -0.003596 0.411767
vn -0.911282 -0.003596 0.411767
vn -0.911282 -0.003596 0.411767
vn -0.911282 -0.003596 0.411767
vn 0.998944 0.000738 0.045946
vn 0.998944 0.000738 0.045946
vn 0.998944 0.000738 0.045946
vn 0.998944 0.000738 0.045946
vn -0.998943 0.000738 0.045953
vn -0.998943 0.000738 0.045953
vn -0.998943 0.000738 0.045953
vn -0.998943 0.000738 0.045953
vn -0.971902 0.051948 -0.229582
vn -0.971902 0.051948 -0.229582
vn -0.971902 0.051948 -0.229582
vn -0.971902 0.051948 -0.229582
vn -0.998943 0.000738 -0.045951
vn -0.998943 0.000738 -0.045951
vn -0.998943 0.000738 -0.045951
vn -0.998943 0.000738 -0.045951
vn -0.993769 -0.100611 -0.047971
vn -0.993769 -0.100611 -0.047971
vn -0.993769 -0.100611 -0.047971
vn -0.993769 -0.100611 -0.047971
vn 0.998944 0.000738 -0.045945
vn 0.998944 0.000738 -0.045945
vn 0.998944 0.000738 -0.045945
vn 0.998944 0.000738 -0.045945
vn 0.911264 -0.003596 -0.411806
vn 0.911264 -0.003596 -0.411806
vn 0.911264 -0.003596 -0.411806
vn 0.911264 -0.003596 -0.411807
vn 0.993769 -0.100615 -0.047964
vn 0.993769 -0.100615 -0.047964
vn 0.993769 -0.100615 -0.047964
vn 0.993769 -0.100615 -0.047964
vn 0.993768 -0.100615 0.047966
vn 0.993768 -0.100615 0.047966
vn 0.993768 -0.100615 0.047966
vn 0.993768 -0.100615 0.047966
vn 0.911264 -0.003596 0.411806
vn 0.911264 -0.003596 0.411807
vn 0.911264 -0.003596 0.411806
vn 0.911264 -0.003596 0.411806
vn 0.971895 0.051953 0.229610
vn 0.971895 0.051953 0.229610
vn 0.971895 0.051953 0.229610
vn 0.971895 0.051953 0.229610
vn 0.971896 0.051954 -0.229606
vn 0.971896 0.051954 -0.229607
vn 0.971896 0.051954 -0.229607
vn 0.971896 0.051954 -0.229607
vn 0.619361 0.633226 0.464131
vn 0.619361 0.633226 0.464131
vn 0.619361 0.633226 0.464131
vn 0.619361 0.633226 0.464131
vn -0.619367 0.633221 0.464129
vn -0.619367 0.633221 0.464129
vn -0.619367 0.633221 0.464129
vn -0.619367 0.633221 0.464129
vn -0.914734 -0.389871 -0.106119
vn -0.914740 -0.389861 0.106108
vn -0.912246 -0.394138 0.111637
vn -0.912241 -0.394147 -0.111645
vn -0.619352 0.633234 -0.464132
vn -0.619352 0.633234 -0.464132
vn -0.619352 0.633234 -0.464132
vn -0.619352 0.633234 -0.464132
vn 0.619346 0.633237 -0.464135
vn 0.619346 0.633237 -0.464135
vn 0.619346 0.633237 -0.464135
vn 0.619346 0.633237 -0.464135
vn 0.912247 -0.394136 -0.111636
vn 0.912249 -0.394133 0.111632
vn 0.914743 -0.389856 0.106103
vn 0.914741 -0.389860 -0.106109
vn 0.000000 1.000000 -0.000000
vn 0.000000 1.000000 -0.000000
vn 0.000000 1.000000 -0.000000
vn 0.000000 1.000000 -0.000000
vn 0.000000 1.000000 -0.000000
vn 0.000000 1.000000 -0.000000
vn -0.396198 -0.918165 -0.000001
vn 0.211070 -0.906540 -0.365560
vn -0.000000 -1.000000 0.000000
vn 0.200114 -0.916424 -0.346585
vn 0.202081 -0.914680 0.350033
vn 0.212983 -0.904731 0.368916
vn -0.396192 -0.918168 -0.000001
vn 0.587141 0.012483 -0.809388
vn 0.407344 0.012484 -0.913190
vn 0.327707 0.006161 -0.944759
vn 0.655691 0.010808 -0.754952
vn -0.498959 0.064960 -0.864188
vn -0.423051 0.533049 -0.732725
vn -0.423053 0.533043 -0.732729
vn -0.499462 0.046997 -0.865060
vn -0.994520 0.012487 -0.103799
vn -0.994521 0.012483 0.103790
vn -0.981668 -0.000348 0.190600
vn -0.981599 -0.000920 -0.190949
vn -0.499443 0.047003 0.865071
vn -0.423040 0.533041 0.732737
vn -0.423041 0.533038 0.732739
vn -0.498939 0.064979 0.864198
vn 0.407385 0.012484 0.913171
vn 0.587157 0.012484 0.809377
vn 0.655950 0.010265 0.754734
vn 0.327740 0.006171 0.944748
vn 0.995530 0.094448 -0.000000
vn 0.846088 0.533043 -0.000000
vn 0.846088 0.533043 -0.000000
vn 0.995532 0.094429 -0.000000
vn -0.343531 0.726594 -0.595019
vn -0.343531 0.726594 -0.595019
vn 0.831178 0.020817 -0.555616
vn 0.821115 0.051332 -0.568450
vn -0.000007 -1.000000 -0.000015
vn -0.000007 -1.000000 -0.000015
vn -0.000007 -1.000000 -0.000015
vn -0.000007 -1.000000 -0.000015
vn -0.902865 0.051335 0.426848
vn -0.896875 -0.009114 0.442190
vn -0.343534 0.726592 0.595020
vn -0.343534 0.726592 0.595020
vn -0.896467 -0.010584 -0.442985
vn -0.902874 0.051347 -0.426828
vn -0.000007 -1.000000 0.000015
vn -0.000007 -1.000000 0.000015
vn -0.000007 -1.000000 0.000015
vn -0.000007 -1.000000 0.000015
vn 0.821089 0.051340 0.568486
vn 0.831684 0.019375 0.554910
vn 0.687069 0.726593 -0.000000
vn 0.687069 0.726593 -0.000000
vn 0.063984 0.002057 0.997949
vn 0.081776 0.051339 0.995327
vn -0.000000 -1.000000 0.000000
vn -0.000000 -1.000000 0.000000
vn -0.000000 -1.000000 0.000000
vn -0.000000 -1.000000 0.000000
vn 0.081776 0.051339 -0.995327
vn 0.063987 0.002028 -0.997949
vn 0.396977 -0.607942 0.687616
vn 0.396789 -0.608431 0.687292
vn -0.894504 -0.078357 0.440140
vn -0.875200 -0.146948 0.460902
vn -0.486107 0.234131 -0.841952
vn -0.489747 -0.201518 -0.848256
vn -0.490450 -0.194564 -0.849473
vn -0.486107 0.234131 -0.841952
vn 0.851835 -0.052646 -0.521158
vn 0.843290 -0.017131 -0.537185
vn 0.397008 -0.607952 -0.687589
vn 0.397191 -0.607473 -0.687907
vn 0.848968 -0.027755 0.527716
vn 0.855617 -0.061788 0.513908
vn -0.486117 0.234038 0.841972
vn -0.490448 -0.194569 0.849473
vn -0.489746 -0.201520 0.848256
vn -0.486117 0.234038 0.841972
vn -0.869923 -0.156499 -0.467699
vn -0.888545 -0.089561 -0.449963
vn -0.800410 -0.599454 -0.000002
vn -0.800402 -0.599463 -0.000002
vn 0.049167 -0.052189 -0.997426
vn 0.028708 -0.102119 -0.994358
vn 0.982625 0.185603 -0.000000
vn 0.985932 -0.167147 0.000000
vn 0.985934 -0.167135 0.000000
vn 0.982625 0.185603 -0.000000
vn 0.028918 -0.101763 0.994388
vn 0.049532 -0.051685 0.997434
vn -0.000000 0.031851 -0.999493
vn 0.865577 0.031852 -0.499762
vn 0.863708 0.072964 -0.498683
vn 0.000000 0.072961 -0.997335
vn -0.863709 0.072966 -0.498682
vn -0.865578 0.031853 -0.499760
vn -0.865593 0.031852 0.499734
vn -0.863725 0.072965 0.498654
vn -0.000005 0.072965 0.997335
vn -0.000006 0.031852 0.999493
vn 0.865588 0.031851 0.499743
vn 0.863719 0.072962 0.498664
vn 0.000000 1.000000 -0.000000
vn 0.000000 1.000000 -0.000000
vn 0.000003 -0.980371 -0.197162
vn -0.325101 -0.927116 -0.186453
vn -0.325101 -0.927116 -0.186453
vn 0.000002 -0.980371 -0.197162
vn 0.905944 -0.404490 -0.125111
vn 0.905944 -0.404490 -0.125111
vn 0.325107 -0.927114 -0.186451
vn 0.325107 -0.927114 -0.186451
vn 0.000000 1.000000 -0.000000
vn -0.905938 -0.404501 -0.125121
vn -0.905938 -0.404501 -0.125121
vn 0.000001 -0.980371 0.197162
vn 0.325090 -0.927120 0.186452
vn 0.325090 -0.927120 0.186452
vn -0.000001 -0.980371 0.197162
vn -0.905944 -0.404490 0.125111
vn -0.905944 -0.404490 0.125111
vn 0.000000 1.000000 -0.000000
vn 0.000001 1.000000 -0.000000
vn 0.000000 1.000000 -0.000000
vn 0.905947 -0.404486 0.125105
vn 0.905947 -0.404486 0.125105
vn -0.325087 -0.927121 0.186454
vn -0.325087 -0.927121 0.186454
vn 0.367110 -0.678886 0.635881
vn 0.367110 -0.678886 0.635881
vn -0.906476 0.321946 0.273225
vn -0.906476 0.321946 0.273225
vn 0.766329 0.190725 -0.613485
vn 0.766329 0.190725 -0.613485
vn 0.366881 -0.679450 -0.635410
vn 0.366881 -0.679450 -0.635410
vn 0.785835 0.172826 0.593797
vn 0.785835 0.172826 0.593797
vn -0.903316 0.305915 -0.300727
vn -0.903316 0.305915 -0.300727
vn -0.782235 -0.622983 -0.000003
vn -0.782235 -0.622983 -0.000003
vn 0.161333 0.231069 -0.959468
vn 0.161333 0.231069 -0.959468
vn 0.162491 0.232315 0.958972
vn 0.162491 0.232315 0.958972
vn 0.733263 0.532063 -0.423360
vn 0.000000 0.532051 -0.846712
vn -0.733260 0.532074 -0.423351
vn -0.733262 0.532076 0.423346
vn -0.000005 0.532074 0.846698
vn 0.733271 0.532060 0.423351
f 1/1/1 17/2/2 18/3/3 10/4/4
f 3/5/5 13/6/6 14/104/7 5/8/8
f 16/103/9 7/10/10 11/11/11 15/102/12
f 7/10/13 16/14/14 17/2/15 1/1/16
f 9/15/17 2/16/18 8/17/19 12/18/20
f 7/10/21 1/1/22 10/4/23 11/11/24
f 10/4/25 18/3/26 13/6/27 3/5/28
f 11/11/29 10/4/30 3/5/31 5/8/32
f 15/102/33 11/11/34 5/8/35 14/105/36
f 4/19/37 9/15/38 12/18/39 6/20/40
f 13/101/41 4/19/42 6/20/43 14/13/44
f 12/18/45 15/12/46 14/7/47 6/20/48
f 8/17/49 16/9/50 15/12/51 12/18/52
f 17/2/53 16/14/54 8/17/55 2/16/56
f 17/2/57 2/16/58 9/15/59 18/100/60
f 18/100/61 9/15/62 4/19/63 13/101/64
f 68/21/65 69/22/66 70/23/67 71/146/68
f 72/25/69 70/23/70 69/22/71 73/26/72
f 21/27/73 22/28/74 64/29/75 65/30/76
f 74/31/77 75/141/78 76/33/79 77/34/80
f 77/34/81 78/35/82 79/138/83 74/31/84
f 67/37/85 62/38/86 24/39/87 19/40/88
f 22/28/89 21/27/90 20/41/91 23/42/92
f 24/39/93 23/42/92 20/41/91 19/40/94
f 25/43/95 26/44/96 31/45/97
f 26/44/96 27/46/98 31/45/97
f 27/46/98 28/47/99 31/45/97
f 28/47/99 29/48/100 31/45/97
f 29/48/100 30/49/101 31/45/97
f 30/49/101 25/43/95 31/45/97
f 33/50/102 32/51/103 30/52/104 29/131/105
f 41/53/106 39/54/107 38/55/108 40/56/109
f 35/57/110 34/58/111 28/59/112 27/130/113
f 45/60/114 43/61/115 42/62/116 44/63/117
f 37/64/118 36/65/119 26/66/120 25/67/121
f 49/68/122 47/69/123 46/70/124 48/71/125
f 39/54/107 34/58/126 33/50/127 38/55/108
f 33/50/102 29/131/105 40/56/128 38/55/129
f 50/129/130 52/73/131 53/74/132 51/75/133
f 28/59/112 34/58/111 39/54/134 41/53/135
f 43/61/115 36/65/136 35/57/137 42/62/116
f 35/57/110 27/130/113 44/63/138 42/62/139
f 54/125/140 56/77/141 57/78/142 55/79/143
f 26/66/120 36/65/119 43/61/144 45/60/145
f 47/69/123 32/51/146 37/64/147 46/70/124
f 37/64/118 25/67/121 48/71/148 46/70/149
f 58/121/150 60/81/151 61/82/152 59/83/153
f 30/52/104 32/51/103 47/69/154 49/68/155
f 29/48/100 28/47/99 80/128/156 81/126/157
f 28/59/112 41/53/135 82/86/158 80/84/159
f 52/73/160 82/86/161 83/87/162 53/74/163
f 40/56/128 29/131/105 81/85/164 83/87/165
f 27/46/98 26/44/96 84/124/166 85/122/167
f 26/66/120 45/60/145 86/90/168 84/88/169
f 56/77/170 86/90/171 87/91/172 57/78/173
f 44/63/138 27/130/113 85/89/174 87/91/175
f 25/43/95 30/49/101 88/120/176 89/118/177
f 30/52/104 49/68/155 90/94/178 88/92/179
f 60/81/180 90/94/181 91/95/182 61/82/183
f 48/71/148 25/67/121 89/93/184 91/95/185
f 63/106/186 62/107/187 92/108/188 93/109/189
f 93/109/189 94/110/190 64/99/191 63/106/186
f 65/112/192 64/111/191 94/98/190 95/113/193
f 95/113/193 96/114/194 66/115/195 65/112/192
f 67/116/196 66/115/195 96/114/194 97/117/197
f 97/117/197 92/108/188 62/107/187 67/116/196
f 19/40/94 20/41/91 69/22/198 68/21/199
f 66/96/200 67/37/201 71/24/202 70/144/203
f 67/37/85 19/40/88 68/21/204 71/24/205
f 65/30/206 66/147/200 70/145/203 72/143/207
f 20/41/91 21/27/90 73/26/208 69/22/198
f 21/27/73 65/30/76 72/143/209 73/26/210
f 63/97/211 64/29/212 75/32/213 74/139/214
f 64/29/75 22/28/74 76/33/215 75/32/216
f 22/28/89 23/42/92 77/34/217 76/33/218
f 23/42/92 24/39/93 78/35/219 77/34/217
f 24/39/87 62/38/86 79/36/220 78/35/221
f 62/38/222 63/142/211 74/140/214 79/36/223
f 81/126/157 80/128/156 50/72/224 51/127/225
f 80/84/159 82/86/158 52/73/226 50/129/227
f 83/87/162 82/86/161 41/53/106 40/56/109
f 83/87/165 81/85/164 51/75/228 53/74/229
f 85/122/167 84/124/166 54/76/230 55/123/231
f 84/88/169 86/90/168 56/77/232 54/125/233
f 87/91/172 86/90/171 45/60/114 44/63/117
f 87/91/175 85/89/174 55/79/234 57/78/235
f 89/118/177 88/120/176 58/80/236 59/119/237
f 88/92/179 90/94/178 60/81/238 58/121/239
f 91/95/182 90/94/181 49/68/122 48/71/125
f 91/95/185 89/93/184 59/83/240 61/82/241
f 93/132/189 92/133/188 32/51/242 33/50/243
f 33/50/243 34/58/244 94/134/190 93/132/189
f 95/135/193 94/134/190 34/58/244 35/57/245
f 35/57/245 36/65/246 96/136/194 95/135/193
f 97/137/197 96/136/194 36/65/246 37/64/247
f 37/64/247 32/51/242 92/133/188 97/137/197
