# This file uses centimeters as units for non-parametric coordinates.

v -0.027874 0.044688 0.054646
v 0.050684 0.044722 0.029117
v -0.047266 0.058269 -0.017292
v 0.034544 0.057568 -0.036044
v -0.046197 -0.068602 -0.037428
v 0.048591 -0.068796 -0.037505
v -0.040632 -0.070281 0.048471
v 0.046187 -0.070072 0.044482
v 0.016369 0.057234 0.051582
v -0.007635 0.073067 -0.031617
v 0.001184 -0.086244 -0.048016
v 0.002407 -0.087215 0.057963
v -0.050502 0.040707 0.018712
v 0.050483 0.040790 -0.007292
v -0.058063 0.027605 -0.048418
v 0.048544 0.027838 -0.058825
v -0.050254 -0.081924 0.005724
v 0.052570 -0.081917 0.005309
v -0.039163 0.006263 0.069508
v 0.063725 0.006359 0.044531
v -0.003021 0.034071 -0.082526
v 0.001185 -0.097693 0.005737
v 0.020097 0.001839 0.081556
v 0.072357 0.004770 -0.008463
v -0.072575 0.004770 0.013707
v -0.009019 0.053080 0.056253
v 0.037747 0.053080 0.039372
v -0.030227 0.066653 -0.017700
v 0.016984 0.067850 -0.039562
v -0.024972 -0.080593 -0.044487
v 0.027339 -0.080746 -0.044487
v -0.022118 -0.081892 0.054902
v 0.027300 -0.081750 0.053270
v -0.042511 0.042894 0.034173
v -0.050673 0.047795 0.004272
v 0.050956 0.042945 0.006939
v 0.044452 0.047807 -0.018603
v -0.055199 0.052844 -0.038085
v -0.052757 -0.020904 -0.048261
v 0.041043 0.053550 -0.053324
v 0.051806 -0.021495 -0.051165
v -0.051105 -0.077787 -0.019618
v -0.046884 -0.078285 0.030927
v 0.053425 -0.077787 -0.019733
v 0.050047 -0.078256 0.029012
v -0.042251 -0.036659 0.057791
v -0.030832 0.032684 0.069807
v 0.054824 -0.036147 0.045805
v 0.060329 0.032303 0.040962
v 0.005381 0.057588 0.021729
v 0.012785 0.048628 0.002952
v 0.001955 0.062557 -0.003756
v -0.012122 0.048549 0.011375
v -0.012591 0.067472 -0.061637
v 0.024132 0.034748 -0.076188
v 0.001185 -0.035347 -0.068212
v -0.032638 0.034900 -0.071958
v 0.001185 -0.099231 -0.022999
v 0.024290 -0.092938 0.005737
v 0.001194 -0.099240 0.034451
v -0.021920 -0.092938 0.005737
v 0.009188 -0.043714 0.072171
v 0.045371 0.004626 0.067009
v 0.023468 0.039385 0.074547
v -0.008859 0.004412 0.082526
v 0.072575 0.005334 0.019946
v 0.067846 -0.037541 -0.000013
v 0.064388 0.014714 -0.035786
v 0.064646 0.027272 -0.009761
v -0.061359 0.005322 0.045255
v -0.065034 0.027272 0.017896
v -0.071719 0.014376 -0.019020
v -0.066283 -0.037555 0.008038
v 0.016313 0.052928 0.016735
v 0.009384 0.057559 -0.008095
v -0.013010 0.056862 0.002887
v -0.006774 0.052929 0.024621
v 0.016763 0.064495 -0.060538
v 0.029420 -0.028404 -0.063940
v -0.027525 -0.027958 -0.063795
v -0.036201 0.064356 -0.045718
v 0.024103 -0.094129 -0.021112
v 0.022877 -0.094207 0.032341
v -0.020383 -0.094207 0.032465
v -0.021717 -0.094129 -0.021112
v 0.036820 -0.037803 0.063065
v 0.044490 0.037995 0.056834
v -0.004940 0.037963 0.074329
v -0.018466 -0.038112 0.071262
v 0.065317 -0.035946 0.024908
v 0.062546 -0.032273 -0.026081
v 0.056858 0.036056 -0.029411
v 0.065329 0.028051 0.011799
v -0.054360 0.028046 0.041943
v -0.065280 0.036023 -0.006855
v -0.063210 -0.032358 -0.020691
v -0.059221 -0.035995 0.036159
v 0.001170 0.049834 0.007211
v 0.007098 0.046845 0.004122
v 0.003585 0.053883 0.016922
v 0.009827 0.049980 0.013859
v -0.000098 0.057038 0.000264
v 0.004890 0.053004 -0.003118
v -0.006662 0.045938 0.009489
v -0.007612 0.051980 0.004272
v -0.003402 0.049813 0.018396
v -0.000369 0.081300 0.002337
v 0.003366 0.081300 0.002337
v -0.000369 0.081300 -0.001397
v 0.003366 0.081300 -0.001397
v -0.000369 0.047461 0.007163
v 0.003366 0.047461 0.007163
v -0.000369 0.047461 0.010898
v 0.003366 0.047461 0.010898
v 0.003366 0.066994 0.007163
v -0.000369 0.066994 0.007163
v -0.000369 0.066994 0.010898
v 0.003366 0.066994 0.010898
v -0.004030 0.060040 0.010971
v -0.004030 0.060040 0.006199
v -0.043101 0.099240 0.010489
v -0.043101 0.099240 0.006681
v -0.045529 0.098960 0.010750
v -0.045529 0.098960 0.006420
v -0.003028 0.055954 0.011298
v -0.003028 0.055954 0.005872
v -0.020731 0.082329 -0.003320
v -0.020731 0.082329 0.020490
v -0.021564 0.080807 0.022120
v -0.021564 0.080807 -0.004950
v -0.030956 0.092534 -0.000344
v -0.030956 0.092534 0.017514
v -0.032302 0.091687 0.018737
v -0.032302 0.091687 -0.001567
v -0.012623 0.070521 -0.000615
v -0.012623 0.070521 0.017785
v -0.012779 0.067847 0.019045
v -0.012779 0.067847 -0.001875
v 0.002546 0.045856 0.011298
v 0.002546 0.045856 0.005872
v 0.001545 0.049941 0.006199
v 0.001545 0.049941 0.010971
vt 0.817950 0.071916
vt 0.796938 0.105240
vt 0.746587 0.116148
vt 0.749143 0.029839
vt 0.713999 0.125334
vt 0.708597 0.033420
vt 0.709039 0.019691
vt 0.142213 0.210364
vt 0.113678 0.229721
vt 0.734712 0.018136
vt 0.760110 0.001875
vt 0.030790 0.307792
vt 0.680433 0.118425
vt 0.630281 0.110881
vt 0.596446 0.081888
vt 0.668560 0.030501
vt 0.574183 0.027311
vt 0.183239 0.176598
vt 0.169314 0.191647
vt 0.684666 0.017957
vt 0.258260 0.211684
vt 0.272834 0.248068
vt 0.236307 0.288652
vt 0.183306 0.217817
vt 0.210935 0.315074
vt 0.159031 0.240797
vt 0.151470 0.228836
vt 0.165972 0.216536
vt 0.173939 0.329872
vt 0.122122 0.350755
vt 0.082708 0.334800
vt 0.121975 0.258973
vt 0.128568 0.240841
vt 0.607914 0.145776
vt 0.557148 0.117593
vt 0.613496 0.203789
vt 0.548194 0.196389
vt 0.483032 0.200590
vt 0.372830 0.156310
vt 0.653585 0.305179
vt 0.709817 0.397193
vt 0.690809 0.447551
vt 0.603613 0.342452
vt 0.658553 0.500670
vt 0.556393 0.386817
vt 0.486230 0.520729
vt 0.441334 0.492112
vt 0.421388 0.385052
vt 0.490781 0.379506
vt 0.369290 0.290915
vt 0.422587 0.241314
vt 0.322543 0.252404
vt 0.330514 0.202408
vt 0.752521 0.402127
vt 0.751582 0.475140
vt 0.806320 0.400981
vt 0.819223 0.464219
vt 0.412724 0.663821
vt 0.489332 0.615795
vt 0.854879 0.383828
vt 0.887755 0.362735
vt 0.923060 0.399523
vt 0.884608 0.447460
vt 0.971345 0.434792
vt 0.325043 0.686764
vt 0.260905 0.626468
vt 0.268207 0.579379
vt 0.312059 0.572749
vt 0.325584 0.639111
vt 0.364971 0.555639
vt 0.390661 0.613564
vt 0.409485 0.522939
vt 0.453082 0.581040
vt 0.879688 0.284799
vt 0.937193 0.284401
vt 0.850527 0.191155
vt 0.911842 0.181438
vt 0.026650 0.504786
vt 0.122934 0.608174
vt 0.827787 0.137085
vt 0.867609 0.105866
vt 0.000977 0.393024
vt 0.118826 0.394504
vt 0.062180 0.393086
vt 0.148810 0.447896
vt 0.086919 0.475712
vt 0.211713 0.523848
vt 0.161341 0.560992
vt 0.828739 0.290747
vt 0.775765 0.304919
vt 0.739219 0.220070
vt 0.796535 0.205594
vt 0.716950 0.309845
vt 0.677376 0.214590
vt 0.674792 0.163034
vt 0.722508 0.170623
vt 0.767487 0.158231
vt 0.189246 0.371575
vt 0.238634 0.350274
vt 0.270792 0.390915
vt 0.210327 0.419069
vt 0.276973 0.312003
vt 0.321013 0.344897
vt 0.372297 0.432240
vt 0.319275 0.467014
vt 0.262421 0.493478
vt 0.513780 0.863580
vt 0.513915 0.883044
vt 0.472218 0.910291
vt 0.471879 0.836752
vt 0.341307 0.867014
vt 0.341197 0.880933
vt 0.333785 0.883062
vt 0.333698 0.864702
vt 0.191987 0.832985
vt 0.479033 0.918005
vt 0.526512 0.887129
vt 0.144768 0.864066
vt 0.562077 0.861297
vt 0.561918 0.886049
vt 0.549108 0.882204
vt 0.549423 0.864578
vt 0.427986 0.826590
vt 0.428086 0.920786
vt 0.383728 0.909372
vt 0.383597 0.838355
vt 0.429714 0.817431
vt 0.287212 0.833645
vt 0.381345 0.916736
vt 0.240430 0.928239
vt 0.272814 0.148655
vt 0.504003 0.083294
vt 0.543783 0.543909
vt 0.859612 0.742929
vt 0.859312 0.764445
vt 0.837796 0.764145
vt 0.838096 0.742629
vt 0.741757 0.762805
vt 0.742057 0.741289
vt 0.659647 0.740139
vt 0.659347 0.761655
vt 0.637830 0.761355
vt 0.638130 0.739839
vt 0.555719 0.738689
vt 0.555419 0.760205
vt 0.459380 0.758865
vt 0.459680 0.737349
vt 0.907477 0.847544
vt 0.885960 0.847244
vt 0.910077 0.661207
vt 0.888560 0.660907
vt 0.911227 0.578796
vt 0.889710 0.578496
vt 0.906327 0.929955
vt 0.884810 0.929654
vt 0.742651 0.524959
vt 0.829926 0.518360
vt 0.910991 0.488294
vt 0.240593 0.680632
vt 0.999023 0.309517
vt 0.979578 0.172028
vt 0.849391 0.024695
vt 0.921353 0.078462
vt 0.097495 0.240069
vt 0.711031 0.002722
vt 0.681747 0.002021
vt 0.662359 0.007770
vt 0.742473 0.000977
vt 0.109281 0.864252
vt 0.109349 0.885843
vt 0.144834 0.885657
vt 0.526491 0.859322
vt 0.192235 0.916241
vt 0.478735 0.829091
vt 0.287400 0.914583
vt 0.429869 0.929926
vt 0.381094 0.831094
vt 0.240126 0.820481
vn 0.400374 0.907580 0.126489
vn 0.545418 0.838164 -0.001057
vn 0.453904 0.878743 -0.147588
vn 0.200578 0.960934 -0.190722
vn 0.507559 0.860259 0.048360
vn 0.214201 0.967384 0.135230
vn 0.155676 0.975505 0.155419
vn 0.075967 0.984115 0.160456
vn -0.199764 0.844878 -0.496262
vn -0.021752 0.902454 -0.430237
vn -0.034943 0.995347 -0.089796
vn 0.121413 0.936161 0.329941
vn 0.507321 0.820644 0.263000
vn 0.498935 0.851689 0.160279
vn 0.321385 0.944971 0.061164
vn 0.370151 0.851158 0.372181
vn 0.004095 0.997318 0.073078
vn 0.164390 0.895052 0.414556
vn 0.347469 0.533155 0.771369
vn 0.386222 0.629072 0.674612
vn -0.258945 0.931811 0.254314
vn -0.516320 0.822229 0.239486
vn -0.460920 0.794385 0.395607
vn -0.113736 0.858446 0.500134
vn -0.480014 0.837561 0.260918
vn -0.155073 0.966746 0.203360
vn -0.029440 0.988596 0.147689
vn 0.174125 0.626672 0.759580
vn -0.461761 0.876208 0.137976
vn -0.427097 0.851361 0.304587
vn -0.220917 0.911865 0.345975
vn -0.260206 0.965248 -0.024285
vn -0.243090 0.886646 -0.393403
vn 0.667614 0.587059 -0.457879
vn 0.284491 0.733995 -0.616697
vn 0.708038 0.086547 -0.700851
vn 0.348149 0.084522 -0.933621
vn -0.064711 0.053546 -0.996466
vn -0.168198 0.753936 -0.635051
vn 0.696823 -0.158661 -0.699474
vn 0.681685 -0.377896 -0.626498
vn 0.355649 -0.523379 -0.774331
vn 0.357465 -0.229110 -0.905388
vn -0.002635 -0.564384 -0.825508
vn -0.014442 -0.274383 -0.961512
vn -0.363221 -0.515958 -0.775795
vn -0.686727 -0.374615 -0.622952
vn -0.736481 -0.172558 -0.654079
vn -0.395088 -0.227371 -0.890061
vn -0.793405 0.066162 -0.605087
vn -0.473084 0.084759 -0.876931
vn -0.772970 0.537461 -0.337124
vn -0.482976 0.748998 -0.453582
vn 0.804927 -0.540283 -0.245330
vn 0.346202 -0.912821 -0.216571
vn 0.790131 -0.612838 0.011060
vn 0.340110 -0.940334 0.009883
vn -0.000176 -0.999997 0.002412
vn -0.000820 -0.973218 -0.229884
vn 0.785702 -0.570638 0.238840
vn 0.722429 -0.379846 0.577765
vn 0.422412 -0.505484 0.752366
vn 0.358913 -0.909489 0.209788
vn 0.046929 -0.552351 0.832289
vn -0.000220 -0.976027 0.217647
vn -0.333427 -0.515802 0.789161
vn -0.646560 -0.381254 0.660761
vn -0.777938 -0.553282 0.297811
vn -0.357857 -0.908083 0.217540
vn -0.796062 -0.603701 0.042779
vn -0.341498 -0.939810 0.011674
vn -0.810175 -0.538144 -0.232417
vn -0.347390 -0.911954 -0.218313
vn 0.800475 -0.203656 0.563706
vn 0.520637 -0.240100 0.819323
vn 0.861618 0.004263 0.507539
vn 0.625132 -0.031907 0.779867
vn 0.249241 -0.053066 0.966986
vn 0.130227 -0.276340 0.952196
vn 0.831030 0.402304 0.384109
vn 0.621251 0.447010 0.643606
vn 0.292276 0.446475 0.845716
vn -0.495605 0.401726 0.770060
vn -0.124733 0.450696 0.883920
vn -0.591934 0.002002 0.805984
vn -0.183999 -0.031615 0.982418
vn -0.631528 -0.204415 0.747922
vn -0.271374 -0.240234 0.932011
vn 0.949067 -0.213503 0.231706
vn 0.974344 -0.219424 -0.050079
vn 0.991176 0.001965 -0.132541
vn 0.983831 0.015820 0.178399
vn 0.927637 -0.174014 -0.330467
vn 0.919521 0.054447 -0.389252
vn 0.846997 0.502527 -0.173383
vn 0.887236 0.453194 -0.086180
vn 0.894315 0.445045 0.046213
vn -0.772483 0.434148 0.463449
vn -0.880220 0.410045 0.238907
vn -0.991896 -0.023284 0.124900
vn -0.861132 0.008012 0.508318
vn -0.901124 0.433311 0.014757
vn -0.970938 0.009133 -0.239158
vn -0.945100 -0.199947 -0.258470
vn -0.969607 -0.234488 0.069839
vn -0.885850 -0.213543 0.411909
vn 0.000000 1.000000 -0.000000
vn 0.000000 1.000000 -0.000000
vn 0.000000 1.000000 -0.000000
vn 0.000000 1.000000 -0.000000
vn 0.000000 -0.513481 -0.858101
vn 0.000000 -0.513481 -0.858101
vn 0.000000 -0.245243 -0.969462
vn 0.000000 -0.245243 -0.969462
vn 0.000000 -1.000000 0.000000
vn 0.000000 -1.000000 0.000000
vn 0.000000 -1.000000 0.000000
vn 0.000000 -1.000000 0.000000
vn 0.000000 0.245248 0.969461
vn 0.000000 0.245248 0.969461
vn 0.000000 0.513488 0.858097
vn 0.000000 0.513488 0.858097
vn 1.000000 0.000000 -0.000000
vn 1.000000 0.000000 -0.000000
vn 1.000000 0.000000 -0.000000
vn 1.000000 0.000000 -0.000000
vn -1.000000 0.000000 0.000000
vn -1.000000 0.000000 0.000000
vn -1.000000 0.000000 0.000000
vn -1.000000 0.000000 0.000000
vn 0.000000 -0.000000 -1.000000
vn 0.000000 -0.000000 -1.000000
vn -1.000000 0.000000 0.000000
vn -1.000000 0.000000 0.000000
vn 0.000000 0.000000 1.000000
vn 0.000000 0.000000 1.000000
vn 1.000000 0.000000 -0.000000
vn 1.000000 0.000000 -0.000000
vn 0.824300 0.549172 0.137624
vn 0.824298 0.549174 -0.137625
vn 0.825324 0.554977 -0.104121
vn 0.825325 0.554976 0.104121
vn 0.397606 0.908883 0.125861
vn 0.397606 0.908883 -0.125860
vn -0.523496 -0.850656 -0.048331
vn -0.523496 -0.850656 0.048329
vn -0.791648 -0.604030 0.091878
vn -0.791649 -0.604029 -0.091878
vn -0.777079 -0.619038 -0.113759
vn -0.777078 -0.619039 0.113758
vn -0.807152 -0.588052 0.051968
vn -0.807152 -0.588051 -0.051979
vn 0.874588 0.405625 -0.265641
vn 0.874586 0.405623 0.265647
vn 0.763631 0.639784 0.086861
vn 0.763631 0.639783 -0.086861
vn 0.627197 0.773507 -0.091165
vn 0.627197 0.773507 0.091165
vn -0.770024 -0.633486 0.075887
vn -0.687677 -0.720545 0.088966
vn -0.687677 -0.720545 -0.088967
vn -0.770024 -0.633486 -0.075886
f 27/1/1 2/2/2 36/3/3 74/4/4
f 36/3/3 14/5/5 51/6/6 74/4/4
f 99/7/7 98/165/8 100/168/9 101/10/10
f 50/11/11 9/162/12 27/1/1 74/4/4
f 37/13/13 4/14/14 29/15/15 75/16/16
f 29/15/15 10/17/17 52/167/18 75/16/16
f 102/166/19 98/165/8 99/7/7 103/20/20
f 51/6/6 14/5/5 37/13/13 75/16/16
f 28/21/21 3/22/22 35/23/23 76/24/24
f 35/23/23 13/25/25 53/26/26 76/24/24
f 104/27/27 98/8/8 102/19/19 105/28/28
f 52/18/18 10/131/17 28/21/21 76/24/24
f 34/29/29 1/30/30 26/31/31 77/32/32
f 26/31/31 9/12/12 50/164/11 77/32/32
f 100/9/9 98/8/8 104/27/27 106/33/33
f 53/26/26 13/25/25 34/29/29 77/32/32
f 29/15/15 4/14/14 40/34/34 78/35/35
f 40/34/34 16/36/36 55/37/37 78/35/35
f 55/37/37 21/38/38 54/132/39 78/35/35
f 54/132/39 10/17/17 29/15/15 78/35/35
f 41/40/40 6/41/41 31/42/42 79/43/43
f 31/42/42 11/44/44 56/45/45 79/43/43
f 56/45/45 21/38/38 55/37/37 79/43/43
f 55/37/37 16/36/36 41/40/40 79/43/43
f 30/46/46 5/47/47 39/48/48 80/49/49
f 39/48/48 15/50/50 57/51/51 80/49/49
f 57/51/51 21/38/38 56/45/45 80/49/49
f 56/45/45 11/133/44 30/46/46 80/49/49
f 38/52/52 3/22/22 28/21/21 81/53/53
f 28/21/21 10/131/17 54/39/39 81/53/53
f 54/39/39 21/38/38 57/51/51 81/53/53
f 57/51/51 15/50/50 38/52/52 81/53/53
f 31/42/42 6/41/41 44/54/54 82/55/55
f 44/54/54 18/56/56 59/57/57 82/55/55
f 59/57/57 22/157/58 58/156/59 82/55/55
f 58/156/59 11/44/44 31/42/42 82/55/55
f 45/60/60 8/61/61 33/62/62 83/63/63
f 33/62/62 12/64/64 60/158/65 83/63/63
f 60/158/65 22/157/58 59/57/57 83/63/63
f 59/57/57 18/56/56 45/60/60 83/63/63
f 32/66/66 7/67/67 43/68/68 84/69/69
f 43/68/68 17/70/70 61/71/71 84/69/69
f 61/71/71 22/58/58 60/65/65 84/69/69
f 60/65/65 12/159/64 32/66/66 84/69/69
f 42/72/72 5/47/47 30/46/46 85/73/73
f 30/46/46 11/133/44 58/59/59 85/73/73
f 58/59/59 22/58/58 61/71/71 85/73/73
f 61/71/71 17/70/70 42/72/72 85/73/73
f 33/62/62 8/61/61 48/74/74 86/75/75
f 48/74/74 20/76/76 63/77/77 86/75/75
f 63/77/77 23/161/78 62/160/79 86/75/75
f 62/160/79 12/64/64 33/62/62 86/75/75
f 49/80/80 2/2/2 27/1/1 87/81/81
f 27/1/1 9/162/12 64/163/82 87/81/81
f 64/163/82 23/161/78 63/77/77 87/81/81
f 63/77/77 20/76/76 49/80/80 87/81/81
f 26/31/31 1/30/30 47/83/83 88/84/84
f 47/83/83 19/85/85 65/86/86 88/84/84
f 65/86/86 23/78/78 64/82/82 88/84/84
f 64/82/82 9/12/12 26/31/31 88/84/84
f 46/87/87 7/67/67 32/66/66 89/88/88
f 32/66/66 12/159/64 62/79/79 89/88/88
f 62/79/79 23/78/78 65/86/86 89/88/88
f 65/86/86 19/85/85 46/87/87 89/88/88
f 48/74/74 8/61/61 45/60/60 90/89/89
f 45/60/60 18/56/56 67/90/90 90/89/89
f 67/90/90 24/91/91 66/92/92 90/89/89
f 66/92/92 20/76/76 48/74/74 90/89/89
f 44/54/54 6/41/41 41/40/40 91/93/93
f 41/40/40 16/36/36 68/94/94 91/93/93
f 68/94/94 24/91/91 67/90/90 91/93/93
f 67/90/90 18/56/56 44/54/54 91/93/93
f 40/34/34 4/14/14 37/13/13 92/95/95
f 37/13/13 14/5/5 69/96/96 92/95/95
f 69/96/96 24/91/91 68/94/94 92/95/95
f 68/94/94 16/36/36 40/34/34 92/95/95
f 36/3/3 2/2/2 49/80/80 93/97/97
f 49/80/80 20/76/76 66/92/92 93/97/97
f 66/92/92 24/91/91 69/96/96 93/97/97
f 69/96/96 14/5/5 36/3/3 93/97/97
f 47/83/83 1/30/30 34/29/29 94/98/98
f 34/29/29 13/25/25 71/99/99 94/98/98
f 71/99/99 25/100/100 70/101/101 94/98/98
f 70/101/101 19/85/85 47/83/83 94/98/98
f 35/23/23 3/22/22 38/52/52 95/102/102
f 38/52/52 15/50/50 72/103/103 95/102/102
f 72/103/103 25/100/100 71/99/99 95/102/102
f 71/99/99 13/25/25 35/23/23 95/102/102
f 39/48/48 5/47/47 42/72/72 96/104/104
f 42/72/72 17/70/70 73/105/105 96/104/104
f 73/105/105 25/100/100 72/103/103 96/104/104
f 72/103/103 15/50/50 39/48/48 96/104/104
f 43/68/68 7/67/67 46/87/87 97/106/106
f 46/87/87 19/85/85 70/101/101 97/106/106
f 70/101/101 25/100/100 73/105/105 97/106/106
f 73/105/105 17/70/70 43/68/68 97/106/106
f 50/11/11 74/4/4 101/10/10 100/168/9
f 74/4/4 51/6/6 99/7/7 101/10/10
f 51/6/6 75/16/16 103/20/20 99/7/7
f 75/16/16 52/167/18 102/166/19 103/20/20
f 52/18/18 76/24/24 105/28/28 102/19/19
f 76/24/24 53/26/26 104/27/27 105/28/28
f 53/26/26 77/32/32 106/33/33 104/27/27
f 77/32/32 50/164/11 100/9/9 106/33/33
f 107/134/107 108/135/108 110/136/109 109/137/110
f 109/137/111 110/136/112 115/138/113 116/139/114
f 111/140/115 112/141/116 114/142/117 113/143/118
f 117/144/119 118/145/120 108/146/121 107/147/122
f 108/135/123 118/148/124 115/149/125 110/136/126
f 117/150/127 107/134/128 109/137/129 116/151/130
f 116/139/114 115/138/113 112/141/131 111/140/132
f 113/152/133 117/150/127 116/151/130 111/153/134
f 113/143/135 114/142/136 118/145/120 117/144/119
f 115/149/125 118/148/124 114/154/137 112/155/138
f 119/107/139 120/108/140 135/109/141 136/110/142
f 121/111/143 122/112/144 124/113/145 123/114/146
f 137/115/147 138/173/148 126/171/149 125/118/150
f 139/119/151 140/120/152 141/121/153 142/122/154
f 120/108/140 126/117/149 138/116/148 135/109/141
f 125/172/150 119/107/139 136/110/142 137/174/147
f 128/123/155 127/124/156 131/125/157 132/126/158
f 129/127/159 128/123/155 132/126/158 133/177/160
f 133/128/160 134/175/161 130/130/162 129/178/159
f 127/124/156 130/176/162 134/129/161 131/125/157
f 132/126/158 131/125/157 122/112/144 121/111/143
f 133/177/160 132/126/158 121/111/143 123/114/146
f 123/114/146 124/113/145 134/175/161 133/128/160
f 131/125/157 134/129/161 124/113/145 122/112/144
f 136/110/142 135/109/141 127/124/156 128/123/155
f 137/174/147 136/110/142 128/123/155 129/127/159
f 129/178/159 130/130/162 138/173/148 137/115/147
f 135/109/141 138/116/148 130/176/162 127/124/156
f 125/118/150 126/171/149 140/170/152 139/169/151
f 126/117/149 120/108/140 141/121/153 140/120/152
f 120/108/140 119/107/139 142/122/154 141/121/153
f 119/107/139 125/172/150 139/119/151 142/122/154
