# Blender v2.80 (sub 36) OBJ File: 'Cube.blend'
# www.blender.org
mtllib Cube.mtl
o Cube
v -1.000000 1.000000 -1.000000
v -1.000000 -1.000000 -1.000000
v -1.000000 1.000000 1.000000
v -1.000000 -1.000000 1.000000
v 0.892683 0.974821 -0.931210
v 0.894350 0.931513 -0.976650
v 0.831896 1.000000 -1.000000
v 0.899809 0.956564 -0.956610
v 0.873307 0.981124 -0.981124
v 0.864828 0.965605 -0.993539
v 0.864828 0.993539 -0.965605
v 1.030924 0.906269 -0.862536
v 1.048766 0.843303 -0.843141
v 1.026448 0.862026 -0.908403
v 1.050929 0.878634 -0.853984
v 1.046476 0.875514 -0.875743
v 1.039417 0.851663 -0.876177
v 1.038295 0.888536 -0.889457
v 1.000002 -0.831896 -0.831897
v 0.974821 -0.892683 -0.849072
v 0.974822 -0.849072 -0.892684
v 0.993539 -0.864828 -0.840484
v 0.992824 -0.862352 -0.862352
v 0.981898 -0.874416 -0.874416
v 0.993575 -0.840486 -0.864841
v 0.892683 -0.974821 -0.931210
v 0.831896 -1.000000 -1.000000
v 0.892683 -0.931210 -0.974821
v 0.864828 -0.993539 -0.965605
v 0.873307 -0.981124 -0.981124
v 0.864828 -0.965605 -0.993539
v 0.899760 -0.956554 -0.956554
v 0.984157 0.895142 0.851350
v 0.977254 0.849714 0.893554
v 1.000459 0.832014 0.831995
v 0.990134 0.876619 0.876877
v 0.998978 0.863990 0.864024
v 0.994917 0.840854 0.865211
v 1.000263 0.866589 0.842021
v 0.892683 0.974821 0.931210
v 0.831896 1.000000 1.000000
v 0.892683 0.931210 0.974821
v 0.864828 0.993539 0.965605
v 0.873307 0.981124 0.981124
v 0.864828 0.965605 0.993539
v 0.899760 0.956554 0.956554
v 0.974821 -0.892683 0.849072
v 1.000000 -0.831896 0.831896
v 0.974821 -0.849072 0.892683
v 0.993539 -0.864828 0.840484
v 0.992824 -0.862352 0.862352
v 0.993539 -0.840484 0.864828
v 0.981898 -0.874416 0.874416
v 0.831896 -1.000000 1.000000
v 0.892683 -0.974821 0.931210
v 0.892683 -0.931210 0.974821
v 0.864828 -0.993539 0.965605
v 0.873307 -0.981124 0.981124
v 0.899760 -0.956554 0.956554
v 0.864828 -0.965605 0.993539
v -0.976172 1.000000 -1.000000
v -0.976172 1.000000 1.000000
v -0.976172 -1.000000 -1.000000
v -0.976172 -1.000000 1.000000
v 0.807401 1.000000 1.000000
v 0.807401 1.000000 -1.000000
v 0.807401 -1.000000 -1.000000
v 0.807401 -1.000000 1.000000
v -1.000000 0.986726 1.000000
v -1.000000 0.986726 -1.000000
v 1.045413 0.830554 -0.841901
v 1.030933 0.838260 -0.873950
v 1.016182 0.848194 -0.904880
v 0.831896 0.986726 -1.000000
v 0.864844 0.952791 -0.993556
v 0.897342 0.919596 -0.979871
v 0.831896 0.986726 1.000000
v 0.864828 0.952787 0.993539
v 0.892683 0.918849 0.974821
v 1.000057 0.820868 0.831908
v 0.993908 0.829427 0.864932
v 0.975767 0.838053 0.893024
v -0.976172 0.986726 1.000000
v -0.976172 0.986726 -1.000000
v 0.807401 0.986726 1.000000
v 0.807401 0.986726 -1.000000
v -1.000000 -0.969427 -1.000000
v 1.000265 -0.806471 -0.831986
v 0.864828 -0.936083 -0.993539
v 0.892683 -0.902740 -0.974821
v 0.831896 -0.969427 1.000000
v 0.993539 -0.814788 0.864828
v 0.974821 -0.823113 0.892683
v -0.976172 -0.969427 1.000000
v -0.976172 -0.969427 -1.000000
v 0.807401 -0.969427 1.000000
v 0.807401 -0.969427 -1.000000
v -1.000000 -0.969427 1.000000
v 0.994584 -0.814822 -0.865187
v 0.975310 -0.823129 -0.892850
v 0.831896 -0.969427 -1.000000
v 0.864828 -0.936083 0.993539
v 0.892683 -0.902740 0.974821
v 1.000000 -0.806462 0.831896
v -1.000000 -1.000000 -0.981251
v -1.000000 1.000000 -0.981251
v 0.831896 1.000000 -0.981251
v 0.864828 0.993539 -0.947501
v 0.892683 0.974821 -0.913751
v 1.051603 0.843858 -0.827487
v 1.052947 0.879202 -0.838107
v 1.033390 0.906813 -0.846640
v 0.831896 -1.000000 -0.981251
v 0.864828 -0.993539 -0.947501
v 0.892683 -0.974821 -0.913751
v 1.000000 -0.831896 -0.816299
v 0.993539 -0.864828 -0.824726
v 0.974821 -0.892683 -0.833153
v -0.976172 -1.000000 -0.981251
v -0.976172 1.000000 -0.981251
v 0.807401 1.000000 -0.981251
v 0.807401 -1.000000 -0.981251
v 1.049520 0.831151 -0.826342
v -1.000000 0.986726 -0.981251
v -1.000000 -0.969427 -0.981251
v 1.000022 -0.806463 -0.816306
v -1.000000 -1.000000 0.961922
v 0.831896 1.000000 0.961922
v 1.000144 0.866722 0.809504
v 0.984305 0.895334 0.818405
v 0.864828 -0.993539 0.928837
v 0.892683 -0.974821 0.895752
v 1.000000 -0.831896 0.800219
v -0.976172 -1.000000 0.961922
v -0.976172 1.000000 0.961922
v 0.807401 1.000000 0.961922
v 0.807401 -1.000000 0.961922
v 1.000058 0.820871 0.800227
v 1.000000 -0.806462 0.800219
v -1.000000 1.000000 0.961922
v 0.864828 0.993539 0.928837
v 0.892683 0.974821 0.895752
v 1.000469 0.832035 0.800282
v 0.831896 -1.000000 0.961922
v 0.993539 -0.864828 0.808481
v 0.974821 -0.892683 0.816741
v -1.000000 0.986726 0.961922
v -1.000000 -0.969427 0.961922
vt 0.334449 0.341317
vt 0.332246 0.341317
vt 0.332246 0.338205
vt 0.334449 0.338205
vt 0.002207 0.040074
vt 0.000004 0.040074
vt 0.000000 0.036032
vt 0.002203 0.036032
vt 0.324689 0.340512
vt 0.324689 0.338309
vt 0.328639 0.338309
vt 0.328639 0.340512
vt 0.338566 0.334173
vt 0.338566 0.338102
vt 0.332246 0.338100
vt 0.332246 0.334171
vt 0.963816 0.325624
vt 0.967877 0.325624
vt 0.967877 0.331944
vt 0.963816 0.331944
vt 0.664189 0.325624
vt 0.668139 0.325624
vt 0.668139 0.331944
vt 0.664189 0.331944
vt 0.338566 0.040086
vt 0.332246 0.040084
vt 0.029011 0.340513
vt 0.029011 0.338309
vt 0.002521 0.338309
vt 0.000318 0.338309
vt 0.000314 0.334377
vt 0.002517 0.334377
vt 0.024950 0.340513
vt 0.024950 0.338309
vt 0.338566 0.036047
vt 0.332246 0.036045
vt 0.327168 0.334377
vt 0.326858 0.040074
vt 0.024950 0.665179
vt 0.029011 0.665179
vt 0.327172 0.338309
vt 0.324689 0.665179
vt 0.328639 0.665179
vt 0.326854 0.036032
vt 0.659115 0.341317
vt 0.659115 0.338205
vt 0.664190 0.341317
vt 0.664190 0.338205
vt 0.331932 0.040074
vt 0.331928 0.036032
vt 0.324689 0.670253
vt 0.328639 0.670253
vt 0.029011 0.670253
vt 0.332246 0.338309
vt 0.332242 0.334377
vt 0.024951 0.670253
vt 0.664190 0.663829
vt 0.659115 0.663829
vt 0.334449 0.663829
vt 0.668139 0.000000
vt 0.963816 0.000000
vt 0.963816 0.003112
vt 0.668139 0.003112
vt 0.664189 0.036151
vt 0.664189 0.040190
vt 0.661077 0.040189
vt 0.661077 0.036150
vt 0.664188 0.334276
vt 0.661077 0.334275
vt 0.664189 0.000000
vt 0.664189 0.003112
vt 0.967877 0.000000
vt 0.967877 0.003112
vt 0.664189 0.338205
vt 0.661077 0.338204
vt 0.332246 0.663829
vt 0.334449 0.670149
vt 0.332246 0.670149
vt 0.659115 0.670149
vt 0.664190 0.670149
vt 0.014671 0.654111
vt 0.014671 0.658836
vt 0.000396 0.645203
vt 0.000396 0.640895
vt 0.302721 0.010454
vt 0.307027 0.010531
vt 0.320541 0.025552
vt 0.315816 0.025552
vt 0.978156 0.014315
vt 0.978156 0.011417
vt 0.992431 0.025050
vt 0.992431 0.027692
vt 0.630699 0.698890
vt 0.630711 0.697037
vt 0.635968 0.697040
vt 0.635951 0.698889
vt 0.668246 0.670149
vt 0.667570 0.675248
vt 0.661657 0.675512
vt 0.661895 0.672275
vt 0.668246 0.680553
vt 0.662046 0.678826
vt 0.658483 0.030596
vt 0.661064 0.028964
vt 0.663132 0.030068
vt 0.355300 0.684781
vt 0.356878 0.689378
vt 0.353235 0.689894
vt 0.350896 0.687729
vt 0.358658 0.695241
vt 0.353107 0.693849
vt 0.347660 0.692122
vt 0.360130 0.973246
vt 0.358654 0.978709
vt 0.355024 0.978298
vt 0.354617 0.974669
vt 0.357080 0.983321
vt 0.352936 0.980294
vt 0.349850 0.976084
vt 0.342803 0.996909
vt 0.336877 1.000000
vt 0.334372 0.997945
vt 0.338658 0.993882
vt 0.326224 0.030483
vt 0.328818 0.028862
vt 0.330905 0.029984
vt 0.335573 0.989672
vt 0.332246 0.995365
vt 0.639046 0.686552
vt 0.643325 0.689629
vt 0.641266 0.691731
vt 0.637629 0.691301
vt 0.645986 0.694087
vt 0.641430 0.695568
vt 0.651549 0.673273
vt 0.657026 0.670149
vt 0.659667 0.672214
vt 0.655807 0.676308
vt 0.333334 0.029964
vt 0.335388 0.028861
vt 0.337958 0.030495
vt 0.658778 0.680510
vt 0.661657 0.674784
vt 0.638593 0.983274
vt 0.637320 0.978662
vt 0.640939 0.978250
vt 0.642851 0.980245
vt 0.635948 0.973200
vt 0.641355 0.974620
vt 0.645823 0.976034
vt 0.019215 0.669181
vt 0.017934 0.667120
vt 0.019439 0.664545
vt 0.651549 0.996856
vt 0.655807 0.993828
vt 0.659667 0.997890
vt 0.657026 0.999946
vt 0.658778 0.989617
vt 0.661657 0.995309
vt 0.652783 0.025647
vt 0.641417 0.001550
vt 0.645893 0.000000
vt 0.657007 0.024127
vt 0.007267 0.024051
vt 0.018640 0.000000
vt 0.023012 0.002293
vt 0.011393 0.025310
vt 0.360117 0.969027
vt 0.354568 0.970410
vt 0.349827 0.971779
vt 0.005713 0.030483
vt 0.007840 0.030480
vt 0.013365 0.024873
vt 0.019439 0.659645
vt 0.641376 0.697464
vt 0.645887 0.696021
vt 0.344060 0.030497
vt 0.343675 0.025549
vt 0.349560 0.025551
vt 0.361276 0.695150
vt 0.359527 0.689285
vt 0.357955 0.684691
vt 0.973388 0.005709
vt 0.973388 0.008713
vt 0.630697 0.973201
vt 0.632014 0.978662
vt 0.633233 0.983275
vt 0.356966 0.008960
vt 0.362434 0.008941
vt 0.641355 0.970356
vt 0.645823 0.971726
vt 0.635948 0.968978
vt 0.019439 0.344018
vt 0.019439 0.346145
vt 0.014671 0.351778
vt 0.014671 0.349727
vt 0.321325 0.030483
vt 0.353408 0.696068
vt 0.348161 0.694412
vt 0.358837 0.697355
vt 0.630697 0.968979
vt 0.025315 0.003924
vt 0.000242 0.365188
vt 0.000000 0.363253
vt 0.362715 0.969025
vt 0.362716 0.973246
vt 0.361449 0.697258
vt 0.649885 0.025646
vt 0.638778 0.001153
vt 0.361267 0.978708
vt 0.359719 0.983321
vt 0.973388 0.320133
vt 0.978156 0.314642
vt 0.632237 0.691279
vt 0.633585 0.686521
vt 0.655478 0.030595
vt 0.992431 0.301528
vt 0.978156 0.320527
vt 0.992431 0.306894
vt 0.973388 0.326235
vn -1.0000 0.0000 0.0000
vn 0.0000 0.0000 -1.0000
vn 0.0000 0.0000 1.0000
vn 0.0000 1.0000 0.0000
vn 0.0000 -1.0000 0.0000
vn 0.6349 -0.0000 0.7725
vn 0.6869 -0.0964 0.7203
vn 0.7814 -0.0755 0.6194
vn 0.7725 -0.0002 0.6349
vn 0.7533 -0.0191 -0.6574
vn 0.7813 -0.0849 -0.6183
vn 0.6873 -0.0977 -0.7197
vn 0.5922 -0.0055 -0.8058
vn 0.6354 -0.7722 0.0000
vn 0.6869 -0.7203 -0.0964
vn 0.7814 -0.6194 -0.0755
vn 0.7722 -0.6354 0.0000
vn 0.9992 -0.0385 0.0114
vn 0.9991 -0.0372 0.0164
vn 0.9962 -0.0399 0.0769
vn 0.9952 -0.0228 0.0947
vn 0.5865 0.7978 -0.1397
vn 0.6738 0.5339 -0.5108
vn 0.6820 0.5271 -0.5069
vn 0.4955 0.8445 -0.2029
vn 0.5961 0.1906 -0.7799
vn 0.4972 0.2402 -0.8337
vn 0.1856 0.6949 -0.6947
vn 0.6562 0.7332 -0.1780
vn 0.9588 0.2115 -0.1896
vn 0.9449 0.0855 -0.3158
vn 0.7843 0.3979 -0.4759
vn 0.9353 -0.2418 -0.2584
vn 0.8445 -0.3448 -0.4097
vn 0.6773 -0.0937 -0.7297
vn 0.9940 -0.0850 -0.0681
vn 0.9282 -0.3669 -0.0621
vn 0.9148 -0.2860 -0.2853
vn 0.9286 -0.0771 -0.3629
vn 0.8416 -0.3819 -0.3818
vn 0.4957 -0.8444 -0.2030
vn 0.6868 -0.5139 -0.5139
vn 0.7963 -0.4277 -0.4277
vn 0.1856 -0.6948 -0.6948
vn 0.4957 -0.2030 -0.8444
vn 0.7823 0.6164 0.0891
vn 0.8516 0.3089 0.4234
vn 0.9464 0.1258 0.2973
vn 0.9702 0.2329 0.0662
vn 0.7568 -0.0173 0.6534
vn 0.9231 -0.0877 0.3744
vn 0.6703 0.7342 0.1078
vn 0.4957 0.8444 0.2030
vn 0.6868 0.5139 0.5139
vn 0.7801 0.4239 0.4602
vn 0.1856 0.6948 0.6948
vn 0.4957 0.2030 0.8444
vn 0.6673 0.0746 0.7411
vn 0.7814 -0.6194 0.0755
vn 0.9283 -0.3666 0.0623
vn 0.9149 -0.2854 0.2854
vn 0.8417 -0.3817 0.3817
vn 0.9942 -0.0760 0.0760
vn 0.9283 -0.0623 0.3666
vn 0.1856 -0.6948 0.6948
vn 0.4957 -0.8444 0.2030
vn 0.6868 -0.5139 0.5139
vn 0.4957 -0.2030 0.8444
vn 0.6869 -0.7203 0.0964
vn 0.7963 -0.4277 0.4277
vn 0.9882 -0.0217 -0.1514
vn 0.9241 -0.0262 -0.3811
vn 0.0968 0.0003 -0.9953
vn 0.3822 0.0662 -0.9217
vn 0.5020 -0.0260 -0.8644
vn 0.0967 0.0000 0.9953
vn 0.3827 0.0000 0.9239
vn 0.9243 -0.0428 0.3793
vn 0.7648 -0.0406 0.6429
vn 0.0967 0.9953 0.0000
vn 0.3827 0.9239 0.0000
vn 0.5895 0.8077 0.0028
vn 0.9921 -0.1058 -0.0674
vn 0.9657 0.2525 -0.0598
vn 0.6971 0.7158 -0.0406
vn 0.0967 -0.9953 0.0000
vn 0.3827 -0.9239 0.0000
vn 0.9953 -0.0968 0.0000
vn 0.9239 -0.3827 0.0000
vn 0.7354 0.6775 0.0114
vn 0.9253 -0.0001 0.3793
vn 0.9954 -0.0000 0.0953
vn 0.6202 -0.0201 0.7841
vn 0.3710 -0.0002 -0.9286
vn 0.0967 0.0000 -0.9953
vn 0.8583 -0.2614 -0.4415
vn 0.6722 -0.1975 -0.7135
vn 0.9522 -0.1647 -0.2570
vn 1.0000 -0.0039 0.0038
vn 0.9996 -0.0126 -0.0247
vn 0.9951 -0.0982 0.0020
vn 0.9932 -0.0938 -0.0688
vn 0.5232 0.8521 -0.0133
vn 0.9637 0.2664 0.0160
usemtl Material
s off
f 124/1/1 106/2/1 1/3/1 70/4/1
f 86/5/2 66/6/2 7/7/2 74/8/2
f 83/9/3 62/10/3 3/11/3 69/12/3
f 135/13/4 140/14/4 3/15/4 62/16/4
f 137/17/5 144/18/5 54/19/5 68/20/5
f 127/21/5 134/22/5 64/23/5 4/24/5
f 136/25/4 135/13/4 62/16/4 65/26/4
f 85/27/3 65/28/3 62/10/3 83/9/3
f 70/29/2 1/30/2 61/31/2 84/32/2
f 77/33/3 41/34/3 65/28/3 85/27/3
f 128/35/4 136/25/4 65/26/4 41/36/4
f 134/22/5 137/17/5 68/20/5 64/23/5
f 84/32/2 61/31/2 66/6/2 86/5/2
f 95/37/2 84/32/2 86/5/2 97/38/2
f 91/39/3 77/33/3 85/27/3 96/40/3
f 87/41/2 70/29/2 84/32/2 95/37/2
f 96/40/3 85/27/3 83/9/3 94/42/3
f 94/42/3 83/9/3 69/12/3 98/43/3
f 97/38/2 86/5/2 74/8/2 101/44/2
f 125/45/1 124/1/1 70/4/1 87/46/1
f 105/47/1 125/45/1 87/46/1 2/48/1
f 67/49/2 97/38/2 101/44/2 27/50/2
f 64/51/3 94/42/3 98/43/3 4/52/3
f 68/53/3 96/40/3 94/42/3 64/51/3
f 2/54/2 87/41/2 95/37/2 63/55/2
f 54/56/3 91/39/3 96/40/3 68/53/3
f 63/55/2 95/37/2 97/38/2 67/49/2
f 127/57/1 148/58/1 125/45/1 105/47/1
f 148/58/1 147/59/1 124/1/1 125/45/1
f 63/60/5 67/61/5 122/62/5 119/63/5
f 7/64/4 66/65/4 121/66/4 107/67/4
f 66/65/4 61/68/4 120/69/4 121/66/4
f 2/70/5 63/60/5 119/63/5 105/71/5
f 67/61/5 27/72/5 113/73/5 122/62/5
f 61/68/4 1/74/4 106/75/4 120/69/4
f 147/59/1 140/76/1 106/2/1 124/1/1
f 69/77/1 3/78/1 140/76/1 147/59/1
f 98/79/1 69/77/1 147/59/1 148/58/1
f 4/80/1 98/79/1 148/58/1 127/57/1
f 119/63/5 122/62/5 137/17/5 134/22/5
f 107/67/4 121/66/4 136/25/4 128/35/4
f 121/66/4 120/69/4 135/13/4 136/25/4
f 105/71/5 119/63/5 134/22/5 127/21/5
f 122/62/5 113/73/5 144/18/5 137/17/5
f 120/69/4 106/75/4 140/14/4 135/13/4
s 1
f 103/81/6 56/82/7 49/83/8 93/84/9
f 100/85/10 21/86/11 28/87/12 90/88/13
f 115/89/14 26/90/15 20/91/16 118/92/17
f 138/93/18 143/94/19 35/95/20 80/96/21
f 5/97/22 8/98/23 9/99/24 11/100/25
f 6/101/26 10/102/27 9/99/24 8/98/23
f 7/64/28 11/103/25 9/104/24 10/105/27
f 12/106/29 15/107/30 16/108/31 18/109/32
f 13/110/33 17/111/34 16/108/31 15/107/30
f 14/112/35 18/109/32 16/108/31 17/111/34
f 19/113/36 22/114/37 23/115/38 25/116/39
f 20/117/16 24/118/40 23/115/38 22/114/37
f 21/119/11 25/116/39 23/115/38 24/118/40
f 26/120/15 29/121/41 30/122/42 32/123/43
f 27/50/44 31/124/45 30/125/42 29/126/41
f 28/127/12 32/123/43 30/122/42 31/128/45
f 33/129/46 36/130/47 37/131/48 39/132/49
f 34/133/50 38/134/51 37/131/48 36/130/47
f 35/95/20 39/132/49 37/131/48 38/134/51
f 40/135/52 43/136/53 44/137/54 46/138/55
f 41/36/56 45/139/57 44/140/54 43/141/53
f 42/142/58 46/138/55 44/137/54 45/143/57
f 47/144/59 50/145/60 51/146/61 53/147/62
f 48/148/63 52/149/64 51/146/61 50/145/60
f 49/150/8 53/147/62 51/146/61 52/149/64
f 54/56/65 57/151/66 58/152/67 60/153/68
f 55/154/69 59/155/70 58/156/67 57/157/66
f 56/158/7 60/159/68 58/156/67 59/155/70
f 5/160/22 12/161/29 18/162/32 8/163/23
f 8/164/23 18/165/32 14/166/35 6/167/26
f 88/168/71 19/113/36 25/116/39 99/169/72
f 99/169/72 25/116/39 21/119/11 100/170/10
f 20/117/16 26/120/15 32/123/43 24/118/40
f 24/118/40 32/123/43 28/127/12 21/119/11
f 74/8/73 7/7/28 10/171/27 75/172/74
f 75/172/74 10/171/27 6/167/26 76/173/75
f 33/129/46 40/135/52 46/138/55 36/130/47
f 36/130/47 46/138/55 42/142/58 34/133/50
f 91/39/76 54/56/65 60/153/68 102/174/77
f 102/174/77 60/153/68 56/82/7 103/81/6
f 55/154/69 47/144/59 53/147/62 59/155/70
f 59/155/70 53/147/62 49/150/8 56/158/7
f 80/96/21 35/95/20 38/134/51 81/175/78
f 81/175/78 38/134/51 34/133/50 82/176/79
f 128/35/80 41/36/56 43/141/53 141/177/81
f 141/177/81 43/141/53 40/178/52 142/179/82
f 110/180/83 13/110/33 15/107/30 111/181/84
f 111/181/84 15/107/30 12/106/29 112/182/85
f 113/73/86 27/72/44 29/183/41 114/184/87
f 114/184/87 29/183/41 26/90/15 115/89/14
f 133/185/88 48/148/63 50/145/60 145/186/89
f 145/186/89 50/145/60 47/144/59 146/187/17
f 142/179/82 40/178/52 33/188/46 130/189/90
f 92/190/91 81/175/78 82/176/79 93/191/9
f 104/192/92 80/96/21 81/175/78 92/190/91
f 45/193/57 78/194/77 79/195/93 42/196/58
f 41/34/56 77/33/76 78/194/77 45/193/57
f 89/197/94 75/172/74 76/173/75 90/88/13
f 101/44/95 74/8/73 75/172/74 89/197/94
f 17/111/34 72/198/96 73/199/97 14/112/35
f 13/110/33 71/200/98 72/198/96 17/111/34
f 139/201/99 138/93/18 80/96/21 104/192/92
f 14/166/35 73/202/97 76/173/75 6/167/26
f 42/196/58 79/195/93 82/203/79 34/204/50
f 133/185/88 139/201/99 104/192/92 48/148/63
f 27/50/44 101/44/95 89/197/94 31/124/45
f 31/124/45 89/197/94 90/88/13 28/87/12
f 48/148/63 104/192/92 92/190/91 52/149/64
f 52/149/64 92/190/91 93/191/9 49/150/8
f 78/194/77 102/174/77 103/81/6 79/195/93
f 77/33/76 91/39/76 102/174/77 78/194/77
f 72/198/96 99/169/72 100/170/10 73/199/97
f 71/200/98 88/168/71 99/169/72 72/198/96
f 73/202/97 100/85/10 90/88/13 76/173/75
f 79/195/93 103/81/6 93/84/9 82/203/79
f 19/113/36 88/168/71 126/205/100 116/206/101
f 88/168/71 71/200/98 123/207/102 126/205/100
f 5/160/22 109/208/103 112/209/85 12/161/29
f 22/114/37 117/210/89 118/211/17 20/117/16
f 19/113/36 116/206/101 117/210/89 22/114/37
f 131/212/87 114/184/87 115/89/14 132/213/14
f 144/18/86 113/73/86 114/184/87 131/212/87
f 129/214/104 111/181/84 112/182/85 130/215/90
f 143/94/19 110/180/83 111/181/84 129/214/104
f 11/103/25 108/216/81 109/208/103 5/160/22
f 7/64/28 107/67/80 108/216/81 11/103/25
f 71/200/98 13/110/33 110/180/83 123/207/102
f 132/213/14 115/89/14 118/92/17 146/217/17
f 55/218/69 132/213/14 146/217/17 47/219/59
f 35/95/20 143/94/19 129/214/104 39/132/49
f 39/132/49 129/214/104 130/215/90 33/129/46
f 54/19/65 144/18/86 131/212/87 57/220/66
f 57/220/66 131/212/87 132/213/14 55/218/69
f 116/206/101 126/205/100 139/201/99 133/185/88
f 126/205/100 123/207/102 138/93/18 139/201/99
f 109/208/103 142/179/82 130/189/90 112/209/85
f 117/210/89 145/186/89 146/187/17 118/211/17
f 116/206/101 133/185/88 145/186/89 117/210/89
f 108/216/81 141/177/81 142/179/82 109/208/103
f 107/67/80 128/35/80 141/177/81 108/216/81
f 123/207/102 110/180/83 143/94/19 138/93/18
