# This file uses meters as units for non-parametric coordinates.

v -0.571425 0.750333 0.571425
v 0.571425 0.750333 0.571425
v -0.571425 0.750333 -0.571425
v 0.571425 0.750333 -0.571425
v -0.571425 0.681980 -0.571425
v 0.571425 0.681980 -0.571425
v -0.571425 0.681980 0.571425
v 0.571425 0.681980 0.571425
v -0.084220 0.707050 0.084220
v 0.084220 0.707050 0.084220
v -0.084220 0.707050 -0.084220
v 0.084220 0.707050 -0.084220
v -0.084220 0.000000 -0.084220
v 0.084220 0.000000 -0.084220
v -0.084220 0.000000 0.084220
v 0.084220 0.000000 0.084220
v 0.084220 0.101214 0.084220
v -0.084220 0.101214 0.084220
v -0.084220 0.101214 -0.084220
v 0.084220 0.101214 -0.084220
v -0.084220 0.101214 -0.321974
v 0.084220 0.101214 -0.321974
v 0.084220 -0.000000 -0.321974
v -0.084220 -0.000000 -0.321974
v -0.084220 0.000000 0.321974
v 0.084220 0.000000 0.321974
v 0.084220 0.101214 0.321974
v -0.084220 0.101214 0.321974
v 0.321973 0.101214 -0.084220
v 0.321973 0.101214 0.084220
v 0.321973 0.000000 0.084220
v 0.321973 0.000000 -0.084220
v -0.321973 0.000000 0.084220
v -0.321973 0.101214 0.084220
v -0.321973 0.101214 -0.084220
v -0.321973 0.000000 -0.084220
vt 0.738239 0.975182
vt 0.281592 0.973953
vt 0.282822 0.517306
vt 0.739468 0.518536
vt 0.282876 0.497272
vt 0.739522 0.498502
vt 0.284106 0.040626
vt 0.740752 0.041856
vt 0.284160 0.020591
vt 0.740806 0.021821
vt 0.261558 0.973899
vt 0.262788 0.517252
vt 0.758273 0.975236
vt 0.759503 0.518590
vt 0.883152 0.992303
vt 0.883152 0.886446
vt 0.989010 0.886446
vt 0.989010 0.992303
vt 0.243149 0.032187
vt 0.349007 0.032186
vt 0.349007 0.095795
vt 0.243149 0.095795
vt 0.243149 0.245215
vt 0.349007 0.245215
vt 0.349007 0.351073
vt 0.243149 0.351073
vt 0.243149 0.500492
vt 0.349007 0.500492
vt 0.349007 0.564101
vt 0.243149 0.564101
vt 0.562035 0.245215
vt 0.562035 0.351073
vt 0.498426 0.351073
vt 0.498426 0.245215
vt 0.093730 0.351073
vt 0.030121 0.351073
vt 0.030121 0.245215
vt 0.093730 0.245215
vt 0.777294 0.505700
vt 0.883152 0.505700
vt 0.777294 0.886446
vt 0.671436 0.505700
vt 0.671437 0.886446
vt 0.565579 0.886446
vt 0.565579 0.505700
vt 0.989010 0.505700
vt 0.179540 0.245215
vt 0.073682 0.245215
vt 0.073682 0.095796
vt 0.179540 0.095796
vt 0.010073 0.245215
vt 0.010073 0.095796
vt 0.412616 0.351072
vt 0.412616 0.500492
vt 0.518473 0.351072
vt 0.518474 0.500492
vt 0.582082 0.351072
vt 0.582083 0.500491
vt 0.349007 0.181606
vt 0.349007 0.075748
vt 0.498426 0.075748
vt 0.498426 0.181606
vt 0.349006 0.012139
vt 0.498426 0.012139
vt 0.243149 0.414682
vt 0.093730 0.414682
vt 0.243149 0.520540
vt 0.093730 0.520539
vt 0.243149 0.584149
vt 0.093730 0.584148
vn -0.000000 1.000000 -0.000000
vn -0.000000 1.000000 -0.000000
vn -0.000000 1.000000 -0.000000
vn -0.000000 1.000000 -0.000000
vn 0.000000 -0.000000 -1.000000
vn 0.000000 -0.000000 -1.000000
vn 0.000000 -0.000000 -1.000000
vn 0.000000 -0.000000 -1.000000
vn 0.000000 -1.000000 0.000000
vn 0.000000 -1.000000 0.000000
vn 0.000000 -1.000000 0.000000
vn 0.000000 -1.000000 0.000000
vn 0.000000 0.000000 1.000000
vn 0.000000 0.000000 1.000000
vn 0.000000 0.000000 1.000000
vn 0.000000 0.000000 1.000000
vn 1.000000 0.000000 -0.000000
vn 1.000000 0.000000 -0.000000
vn 1.000000 0.000000 -0.000000
vn 1.000000 0.000000 -0.000000
vn -1.000000 0.000000 0.000000
vn -1.000000 0.000000 0.000000
vn -1.000000 0.000000 0.000000
vn -1.000000 0.000000 0.000000
vn -0.000000 1.000000 -0.000000
vn -0.000000 1.000000 -0.000000
vn -0.000000 1.000000 -0.000000
vn -0.000000 1.000000 -0.000000
vn 0.000000 -0.000000 -1.000000
vn 0.000000 -0.000000 -1.000000
vn 0.000000 -0.000000 -1.000000
vn 0.000000 -0.000000 -1.000000
vn -0.000000 -1.000000 0.000000
vn -0.000000 -1.000000 0.000000
vn 0.000000 -1.000000 0.000000
vn 0.000000 -1.000000 0.000000
vn 0.000000 0.000000 1.000000
vn 0.000000 0.000000 1.000000
vn 0.000000 0.000000 1.000000
vn 0.000000 0.000000 1.000000
vn 1.000000 -0.000000 -0.000003
vn 1.000000 -0.000000 -0.000003
vn 1.000000 -0.000000 -0.000003
vn 1.000000 -0.000000 -0.000003
vn -1.000000 -0.000000 -0.000002
vn -1.000000 -0.000000 -0.000002
vn -1.000000 -0.000000 -0.000002
vn -1.000000 -0.000000 -0.000002
vn 0.000000 0.000000 1.000000
vn 0.000000 0.000000 1.000000
vn 0.000000 0.000000 1.000000
vn 0.000000 0.000000 1.000000
vn -1.000000 0.000000 0.000000
vn -1.000000 0.000000 0.000000
vn -1.000000 0.000000 0.000000
vn -1.000000 0.000000 0.000000
vn 0.000000 -0.000000 -1.000000
vn 0.000000 -0.000000 -1.000000
vn 0.000000 -0.000000 -1.000000
vn 0.000000 -0.000000 -1.000000
vn 1.000000 0.000000 -0.000000
vn 1.000000 0.000000 -0.000000
vn 1.000000 0.000000 -0.000000
vn 1.000000 0.000000 -0.000000
vn -0.000000 1.000000 -0.000000
vn -0.000000 1.000000 -0.000000
vn -0.000000 1.000000 -0.000000
vn -0.000000 1.000000 -0.000000
vn 1.000000 0.000000 0.000002
vn 1.000000 0.000000 0.000002
vn 1.000000 0.000000 0.000002
vn 1.000000 0.000000 0.000002
vn -0.000000 -1.000000 0.000000
vn -0.000000 -1.000000 0.000000
vn -1.000000 -0.000000 -0.000000
vn -1.000000 -0.000000 -0.000000
vn -1.000000 -0.000000 -0.000000
vn -1.000000 -0.000000 -0.000000
vn 0.000000 -1.000000 0.000000
vn 0.000000 -1.000000 0.000000
vn 1.000000 -0.000000 -0.000002
vn 1.000000 -0.000000 -0.000002
vn 1.000000 -0.000000 -0.000002
vn 1.000000 -0.000000 -0.000002
vn 0.000000 1.000000 0.000000
vn 0.000000 1.000000 0.000000
vn 0.000000 1.000000 0.000000
vn 0.000000 1.000000 0.000000
vn -1.000000 0.000000 0.000001
vn -1.000000 0.000000 0.000001
vn -1.000000 0.000000 0.000001
vn -1.000000 0.000000 0.000001
vn 0.000000 1.000000 0.000000
vn 0.000000 1.000000 0.000000
vn 0.000000 1.000000 0.000000
vn 0.000000 1.000000 0.000000
vn 0.000000 0.000000 1.000000
vn 0.000000 0.000000 1.000000
vn 0.000000 0.000000 1.000000
vn 0.000000 0.000000 1.000000
vn 0.000000 -1.000000 0.000000
vn 0.000000 -1.000000 0.000000
vn 0.000000 -0.000000 -1.000000
vn 0.000000 -0.000000 -1.000000
vn 0.000000 -0.000000 -1.000000
vn 0.000000 -0.000000 -1.000000
vn 0.000000 0.000000 1.000000
vn 0.000000 0.000000 1.000000
vn 0.000000 0.000000 1.000000
vn 0.000000 0.000000 1.000000
vn -0.000000 1.000000 -0.000000
vn -0.000000 1.000000 -0.000000
vn -0.000000 1.000000 -0.000000
vn -0.000000 1.000000 -0.000000
vn 0.000000 -0.000000 -1.000000
vn 0.000000 -0.000000 -1.000000
vn 0.000000 -0.000000 -1.000000
vn 0.000000 -0.000000 -1.000000
vn 0.000000 -1.000000 -0.000000
vn 0.000000 -1.000000 -0.000000
f 1/1/1 2/2/2 4/3/3 3/4/4
f 3/4/5 4/3/6 6/5/7 5/6/8
f 5/6/9 6/5/10 8/7/11 7/8/12
f 7/8/13 8/7/14 2/9/15 1/10/16
f 2/2/17 8/11/18 6/12/19 4/3/20
f 7/13/21 1/1/22 3/4/23 5/14/24
f 9/15/25 10/16/26 12/17/27 11/18/28
f 21/19/29 22/20/30 23/21/31 24/22/32
f 13/23/33 14/24/34 16/25/35 15/26/36
f 25/27/37 26/28/38 27/29/39 28/30/40
f 29/31/41 30/32/42 31/33/43 32/34/44
f 33/35/45 34/36/46 35/37/47 36/38/48
f 18/39/49 17/40/50 10/16/51 9/41/52
f 19/42/53 18/39/54 9/41/55 11/43/56
f 11/43/57 12/44/58 20/45/59 19/42/60
f 10/16/61 17/40/62 20/46/63 12/17/64
f 19/47/65 20/48/66 22/49/67 21/50/68
f 20/48/69 14/51/70 23/52/71 22/49/72
f 14/24/34 13/23/33 24/22/73 23/21/74
f 13/23/75 19/47/76 21/50/77 24/22/78
f 15/26/36 16/25/35 26/28/79 25/27/80
f 16/25/81 17/53/82 27/54/83 26/28/84
f 17/53/85 18/55/86 28/56/87 27/54/88
f 18/55/89 15/57/90 25/58/91 28/56/92
f 20/59/93 17/60/94 30/61/95 29/62/96
f 17/60/97 16/63/98 31/64/99 30/61/100
f 16/25/35 14/24/34 32/34/101 31/33/102
f 14/24/103 20/59/104 29/62/105 32/34/106
f 15/26/107 18/65/108 34/66/109 33/35/110
f 18/65/111 19/67/112 35/68/113 34/66/114
f 19/67/115 13/69/116 36/70/117 35/68/118
f 13/23/33 15/26/36 33/35/119 36/38/120
