# This file uses centimeters as units for non-parametric coordinates.

v 0.689720 0.000000 -0.184810
v 0.618385 0.000000 -0.357026
v 0.504913 0.000000 -0.504912
v 0.357025 0.000000 -0.618388
v 0.184811 0.000000 -0.689722
v -0.000000 0.000000 -0.714053
v -0.184811 0.000000 -0.689722
v -0.357025 0.000000 -0.618388
v -0.504913 0.000000 -0.504912
v -0.618385 0.000000 -0.357027
v -0.689720 0.000000 -0.184811
v -0.714050 0.000000 -0.000000
v -0.689720 0.000000 0.184810
v -0.618385 0.000000 0.357026
v -0.504913 0.000000 0.504912
v -0.357025 0.000000 0.618388
v -0.184811 0.000000 0.689722
v -0.000000 0.000000 0.714053
v 0.184811 0.000000 0.689722
v 0.357025 0.000000 0.618388
v 0.504913 0.000000 0.504912
v 0.618385 0.000000 0.357027
v 0.689720 0.000000 0.184811
v 0.714050 0.000000 -0.000000
v 0.689720 0.675005 -0.184807
v 0.618385 0.675007 -0.357025
v 0.504913 0.675003 -0.504913
v 0.357025 0.675003 -0.618385
v 0.184811 0.675003 -0.689720
v -0.000000 0.675003 -0.714050
v -0.184811 0.675003 -0.689720
v -0.357025 0.675003 -0.618385
v -0.504913 0.675003 -0.504913
v -0.618385 0.675007 -0.357025
v -0.689720 0.675005 -0.184807
v -0.714050 0.675006 0.000000
v -0.689720 0.675005 0.184807
v -0.618385 0.675007 0.357025
v -0.504913 0.675003 0.504913
v -0.357025 0.675003 0.618385
v -0.184811 0.675003 0.689720
v -0.000000 0.675003 0.714050
v 0.184811 0.675003 0.689720
v 0.357025 0.675003 0.618385
v 0.504913 0.675003 0.504913
v 0.618385 0.675007 0.357025
v 0.689720 0.675005 0.184807
v 0.714050 0.675006 0.000000
v -0.000000 0.000000 -0.000000
v 0.547028 0.675007 -0.146576
v 0.490456 0.675007 -0.283165
v 0.400459 0.675007 -0.400459
v 0.283165 0.675003 -0.490456
v 0.146576 0.675003 -0.547028
v -0.000000 0.675003 -0.566330
v -0.146576 0.675003 -0.547028
v -0.283165 0.675003 -0.490456
v -0.400459 0.675007 -0.400459
v -0.490456 0.675007 -0.283165
v -0.547028 0.675007 -0.146576
v -0.566330 0.675006 0.000000
v -0.547028 0.675007 0.146576
v -0.490456 0.675007 0.283165
v -0.400459 0.675007 0.400459
v -0.283165 0.675003 0.490456
v -0.146576 0.675003 0.547028
v -0.000000 0.675003 0.566330
v 0.146576 0.675003 0.547028
v 0.283165 0.675003 0.490456
v 0.400459 0.675007 0.400459
v 0.490456 0.675007 0.283165
v 0.547028 0.675007 0.146576
v 0.566330 0.675006 0.000000
v 0.547028 0.026276 -0.146577
v 0.490456 0.026276 -0.283164
v -0.000000 0.026275 0.000000
v 0.400459 0.026276 -0.400459
v 0.283165 0.026276 -0.490456
v 0.146576 0.026276 -0.547028
v -0.000000 0.026276 -0.566329
v -0.146576 0.026276 -0.547028
v -0.283165 0.026276 -0.490456
v -0.400459 0.026276 -0.400459
v -0.490456 0.026276 -0.283164
v -0.547028 0.026276 -0.146577
v -0.566330 0.026275 0.000000
v -0.547028 0.026276 0.146577
v -0.490456 0.026276 0.283164
v -0.400459 0.026276 0.400459
v -0.283165 0.026276 0.490456
v -0.146576 0.026276 0.547028
v -0.000000 0.026276 0.566329
v 0.146576 0.026276 0.547028
v 0.283165 0.026276 0.490456
v 0.400459 0.026276 0.400459
v 0.490456 0.026276 0.283164
v 0.547028 0.026276 0.146577
v 0.566330 0.026275 0.000000
vt 0.782345 0.177555
vt 0.771719 0.151087
vt 0.878753 0.121872
vt 0.799518 0.200404
vt 0.822164 0.218100
vt 0.848839 0.229405
vt 0.877795 0.233477
vt 0.907083 0.229937
vt 0.934678 0.218929
vt 0.958626 0.201133
vt 0.977191 0.177738
vt 0.989006 0.150371
vt 0.993195 0.120975
vt 0.989449 0.091658
vt 0.978057 0.064517
vt 0.959875 0.041470
vt 0.936247 0.024105
vt 0.908881 0.013570
vt 0.879709 0.010502
vt 0.850738 0.015010
vt 0.823908 0.026691
vt 0.800970 0.044685
vt 0.783387 0.067750
vt 0.772263 0.094346
vt 0.539109 0.245620
vt 0.580939 0.245620
vt 0.623272 0.245620
vt 0.665579 0.245620
vt 0.707843 0.245620
vt 0.750047 0.245620
vt 0.792147 0.245620
vt 0.834066 0.245620
vt 0.875651 0.245620
vt 0.916570 0.245620
vt 0.956048 0.245620
vt 0.998878 0.245620
vt 0.042213 0.245620
vt 0.083620 0.245620
vt 0.125029 0.245620
vt 0.166437 0.245620
vt 0.207845 0.245620
vt 0.249253 0.245620
vt 0.290661 0.245620
vt 0.332068 0.245620
vt 0.373477 0.245620
vt 0.414885 0.245620
vt 0.456293 0.245620
vt 0.497701 0.245620
vt 0.539109 0.639232
vt 0.580939 0.639232
vt 0.580939 0.707556
vt 0.539109 0.707556
vt 0.623272 0.639232
vt 0.623272 0.707556
vt 0.665578 0.639232
vt 0.665578 0.707556
vt 0.707843 0.639232
vt 0.707843 0.707556
vt 0.750046 0.639232
vt 0.750046 0.707556
vt 0.792147 0.639232
vt 0.792147 0.707556
vt 0.834066 0.639232
vt 0.834066 0.707556
vt 0.875651 0.639232
vt 0.875651 0.707556
vt 0.916570 0.639232
vt 0.916570 0.707556
vt 0.956048 0.639232
vt 0.956048 0.707556
vt 0.998878 0.639232
vt 0.000805 0.707556
vt 0.042213 0.639232
vt 0.042213 0.707556
vt 0.768290 0.122738
vt 0.530659 0.100050
vt 0.580939 0.998358
vt 0.539109 0.998358
vt 0.623272 0.998358
vt 0.665579 0.998358
vt 0.707843 0.998358
vt 0.750046 0.998358
vt 0.792147 0.998358
vt 0.834066 0.998358
vt 0.875651 0.998358
vt 0.916570 0.998358
vt 0.956048 0.998358
vt 0.000805 0.998358
vt 0.083620 0.639232
vt 0.083620 0.707556
vt 0.125029 0.639232
vt 0.125029 0.707556
vt 0.166437 0.639232
vt 0.166437 0.707556
vt 0.207845 0.639232
vt 0.207845 0.707556
vt 0.249253 0.639232
vt 0.249253 0.707556
vt 0.290661 0.639232
vt 0.290661 0.707556
vt 0.332068 0.639232
vt 0.332068 0.707556
vt 0.373477 0.639232
vt 0.373477 0.707556
vt 0.414885 0.639232
vt 0.414885 0.707556
vt 0.456293 0.639232
vt 0.456293 0.707556
vt 0.497701 0.639232
vt 0.497701 0.707556
vt 0.540834 0.072829
vt 0.638652 0.125651
vt 0.557607 0.048934
vt 0.579996 0.029937
vt 0.606641 0.017161
vt 0.635861 0.011582
vt 0.665727 0.013746
vt 0.694175 0.023678
vt 0.719156 0.040843
vt 0.738792 0.064138
vt 0.751565 0.091940
vt 0.756465 0.122235
vt 0.753098 0.152781
vt 0.741735 0.181315
vt 0.723278 0.205757
vt 0.699161 0.224388
vt 0.671207 0.235984
vt 0.641448 0.239886
vt 0.611955 0.235996
vt 0.584693 0.224751
vt 0.561396 0.207038
vt 0.543488 0.184108
vt 0.532025 0.157485
vt 0.527666 0.128869
vt 0.042213 0.998358
vt 0.083621 0.998358
vt 0.125029 0.998358
vt 0.166437 0.998358
vt 0.207845 0.998358
vt 0.249253 0.998358
vt 0.290661 0.998358
vt 0.332068 0.998358
vt 0.373477 0.998358
vt 0.414885 0.998358
vt 0.456293 0.998358
vt 0.497701 0.998358
vt 0.000805 0.639232
vt 0.998878 0.707556
vt 0.000805 0.245620
vt 0.993195 0.120975
vt 0.998878 0.998358
vn 0.965926 0.000001 -0.258820
vn 0.866032 0.000001 -0.499989
vn 0.866032 0.000001 -0.499989
vn 0.965926 0.000001 -0.258819
vn 0.707108 0.000000 -0.707106
vn 0.707108 0.000000 -0.707105
vn 0.499994 0.000002 -0.866029
vn 0.499995 0.000002 -0.866029
vn 0.258820 0.000003 -0.965926
vn 0.258820 0.000003 -0.965926
vn 0.000000 0.000003 -1.000000
vn 0.000000 0.000003 -1.000000
vn -0.258820 0.000003 -0.965926
vn -0.258820 0.000003 -0.965926
vn -0.499994 0.000002 -0.866029
vn -0.499994 0.000002 -0.866029
vn -0.707108 0.000000 -0.707106
vn -0.707108 0.000000 -0.707105
vn -0.866032 0.000001 -0.499989
vn -0.866032 0.000001 -0.499989
vn -0.965926 0.000001 -0.258820
vn -0.965926 0.000001 -0.258819
vn -1.000000 0.000000 -0.000000
vn -1.000000 0.000000 0.000000
vn -0.965926 0.000001 0.258820
vn -0.965926 0.000001 0.258819
vn -0.866032 0.000001 0.499989
vn -0.866032 0.000001 0.499989
vn -0.707108 0.000000 0.707106
vn -0.707108 0.000000 0.707105
vn -0.499994 0.000002 0.866029
vn -0.499995 0.000002 0.866028
vn -0.258820 0.000003 0.965926
vn -0.258820 0.000003 0.965926
vn 0.000000 0.000004 1.000000
vn 0.000000 0.000004 1.000000
vn 0.258820 0.000004 0.965926
vn 0.258820 0.000004 0.965926
vn 0.499994 0.000002 0.866029
vn 0.499995 0.000002 0.866028
vn 0.707108 0.000000 0.707106
vn 0.707108 0.000000 0.707105
vn 0.866031 0.000001 0.499990
vn 0.866032 0.000001 0.499989
vn 0.965926 0.000001 0.258820
vn 0.965926 0.000001 0.258819
vn 1.000000 0.000000 -0.000000
vn 1.000000 0.000000 0.000000
vn 0.000000 -1.000000 0.000000
vn 0.000000 -1.000000 0.000000
vn 0.000000 -1.000000 0.000000
vn 0.000000 -1.000000 0.000000
vn 0.000000 -1.000000 0.000000
vn 0.000000 -1.000000 0.000000
vn 0.000000 -1.000000 0.000000
vn 0.000000 -1.000000 0.000000
vn 0.000000 -1.000000 0.000000
vn 0.000000 -1.000000 0.000000
vn 0.000000 -1.000000 0.000000
vn 0.000000 -1.000000 0.000000
vn 0.000000 -1.000000 0.000000
vn 0.000000 -1.000000 0.000000
vn 0.000000 -1.000000 0.000000
vn 0.000000 -1.000000 0.000000
vn 0.000000 -1.000000 0.000000
vn 0.000000 -1.000000 0.000000
vn 0.000000 -1.000000 0.000000
vn 0.000000 -1.000000 0.000000
vn 0.000000 -1.000000 0.000000
vn 0.000000 -1.000000 0.000000
vn 0.000000 -1.000000 0.000000
vn 0.000000 -1.000000 0.000000
vn 0.000000 -1.000000 0.000000
vn -0.000001 1.000000 0.000003
vn -0.000001 1.000000 0.000001
vn -0.000000 1.000000 0.000000
vn -0.000001 1.000000 0.000001
vn -0.000001 1.000000 0.000001
vn -0.000000 1.000000 0.000001
vn -0.000000 1.000000 0.000001
vn 0.000000 1.000000 0.000001
vn 0.000001 1.000000 0.000001
vn 0.000001 1.000000 0.000001
vn 0.000001 1.000000 0.000001
vn 0.000001 1.000000 0.000003
vn 0.000000 1.000000 0.000000
vn 0.000001 1.000000 -0.000003
vn 0.000001 1.000000 -0.000001
vn 0.000001 1.000000 -0.000001
vn 0.000001 1.000000 -0.000001
vn 0.000000 1.000000 -0.000001
vn -0.000000 1.000000 -0.000001
vn -0.000000 1.000000 -0.000001
vn -0.000001 1.000000 -0.000001
vn -0.000001 1.000000 -0.000001
vn -0.000001 1.000000 -0.000001
vn -0.000001 1.000000 -0.000003
vn 0.000000 1.000000 0.000000
vn 0.000007 1.000000 0.000001
vn 0.000006 1.000000 -0.000007
vn 0.000006 1.000000 -0.000007
vn 0.000007 1.000000 0.000001
vn 0.000001 1.000000 -0.000017
vn 0.000001 1.000000 -0.000017
vn -0.000001 1.000000 -0.000009
vn -0.000001 1.000000 -0.000009
vn 0.000000 1.000000 0.000000
vn 0.000000 1.000000 -0.000000
vn 0.000000 1.000000 -0.000000
vn 0.000000 1.000000 -0.000000
vn 0.000000 1.000000 0.000000
vn 0.000000 1.000000 0.000000
vn 0.000001 1.000000 -0.000009
vn 0.000001 1.000000 -0.000009
vn -0.000001 1.000000 -0.000017
vn -0.000001 1.000000 -0.000017
vn -0.000006 1.000000 -0.000007
vn -0.000006 1.000000 -0.000007
vn -0.000007 1.000000 0.000001
vn -0.000007 1.000000 0.000001
vn -0.000007 1.000000 -0.000000
vn -0.000007 1.000000 -0.000000
vn -0.000007 1.000000 -0.000001
vn -0.000007 1.000000 -0.000001
vn -0.000006 1.000000 0.000007
vn -0.000006 1.000000 0.000007
vn -0.000001 1.000000 0.000017
vn -0.000001 1.000000 0.000017
vn 0.000001 1.000000 0.000009
vn 0.000001 1.000000 0.000009
vn 0.000000 1.000000 -0.000000
vn 0.000000 1.000000 -0.000000
vn 0.000000 1.000000 0.000000
vn 0.000000 1.000000 0.000000
vn 0.000000 1.000000 0.000000
vn 0.000000 1.000000 0.000000
vn -0.000001 1.000000 0.000009
vn -0.000001 1.000000 0.000009
vn 0.000001 1.000000 0.000017
vn 0.000001 1.000000 0.000017
vn 0.000006 1.000000 0.000007
vn 0.000006 1.000000 0.000007
vn 0.000007 1.000000 -0.000001
vn 0.000007 1.000000 -0.000001
vn 0.000007 1.000000 0.000000
vn 0.000007 1.000000 0.000000
vn -0.965925 -0.000000 0.258821
vn -0.866042 0.000000 0.499972
vn -0.866042 0.000000 0.499972
vn -0.965925 -0.000000 0.258821
vn -0.707109 0.000000 0.707105
vn -0.707108 0.000000 0.707106
vn -0.499973 -0.000000 0.866041
vn -0.499972 -0.000000 0.866042
vn -0.258818 0.000000 0.965926
vn -0.258818 0.000000 0.965926
vn -0.000000 0.000001 1.000000
vn -0.000000 0.000001 1.000000
vn 0.258818 0.000000 0.965926
vn 0.258818 0.000000 0.965926
vn 0.499973 -0.000000 0.866041
vn 0.499972 -0.000000 0.866042
vn 0.707109 0.000000 0.707105
vn 0.707108 0.000000 0.707106
vn 0.866042 0.000000 0.499972
vn 0.866042 0.000000 0.499972
vn 0.965925 -0.000000 0.258821
vn 0.965925 -0.000000 0.258821
vn 1.000000 -0.000000 0.000000
vn 1.000000 -0.000000 0.000000
vn 0.965925 -0.000000 -0.258821
vn 0.965925 -0.000000 -0.258821
vn 0.866042 0.000000 -0.499972
vn 0.866042 0.000000 -0.499972
vn 0.707108 0.000000 -0.707105
vn 0.707108 0.000000 -0.707106
vn 0.499973 -0.000000 -0.866041
vn 0.499972 -0.000000 -0.866042
vn 0.258818 0.000000 -0.965926
vn 0.258818 0.000000 -0.965926
vn -0.000000 0.000001 -1.000000
vn -0.000000 0.000001 -1.000000
vn -0.258818 0.000000 -0.965926
vn -0.258818 0.000000 -0.965926
vn -0.499973 -0.000000 -0.866041
vn -0.499972 -0.000000 -0.866042
vn -0.707108 0.000000 -0.707105
vn -0.707108 0.000000 -0.707106
vn -0.866042 0.000000 -0.499972
vn -0.866042 0.000000 -0.499972
vn -0.965925 -0.000000 -0.258821
vn -0.965925 -0.000000 -0.258821
vn -1.000000 -0.000000 -0.000000
vn -1.000000 -0.000000 -0.000000
s 1
f 1/25/1 2/26/2 26/50/3 25/49/4
f 2/26/2 3/27/5 27/53/6 26/50/3
f 3/27/5 4/28/7 28/55/8 27/53/6
f 4/28/7 5/29/9 29/57/10 28/55/8
f 5/29/9 6/30/11 30/59/12 29/57/10
f 6/30/11 7/31/13 31/61/14 30/59/12
f 7/31/13 8/32/15 32/63/16 31/61/14
f 8/32/15 9/33/17 33/65/18 32/63/16
f 9/33/17 10/34/19 34/67/20 33/65/18
f 10/34/19 11/35/21 35/69/22 34/67/20
f 11/35/21 12/36/23 36/71/24 35/69/22
f 12/149/23 13/37/25 37/73/26 36/147/24
f 13/37/25 14/38/27 38/89/28 37/73/26
f 14/38/27 15/39/29 39/91/30 38/89/28
f 15/39/29 16/40/31 40/93/32 39/91/30
f 16/40/31 17/41/33 41/95/34 40/93/32
f 17/41/33 18/42/35 42/97/36 41/95/34
f 18/42/35 19/43/37 43/99/38 42/97/36
f 19/43/37 20/44/39 44/101/40 43/99/38
f 20/44/39 21/45/41 45/103/42 44/101/40
f 21/45/41 22/46/43 46/105/44 45/103/42
f 22/46/43 23/47/45 47/107/46 46/105/44
f 23/47/45 24/48/47 48/109/48 47/107/46
f 24/48/47 1/25/1 25/49/4 48/109/48
s 2
f 2/1/49 1/2/50 49/3/51
f 3/4/52 2/1/49 49/3/51
f 4/5/53 3/4/52 49/3/51
f 5/6/54 4/5/53 49/3/51
f 6/7/55 5/6/54 49/3/51
f 7/8/56 6/7/55 49/3/51
f 8/9/57 7/8/56 49/3/51
f 9/10/58 8/9/57 49/3/51
f 10/11/59 9/10/58 49/3/51
f 11/12/60 10/11/59 49/3/51
f 12/13/61 11/12/60 49/3/51
f 13/14/62 12/150/61 49/3/51
f 14/15/63 13/14/62 49/3/51
f 15/16/64 14/15/63 49/3/51
f 16/17/65 15/16/64 49/3/51
f 17/18/66 16/17/65 49/3/51
f 18/19/67 17/18/66 49/3/51
f 19/20/68 18/19/67 49/3/51
f 20/21/69 19/20/68 49/3/51
f 21/22/70 20/21/69 49/3/51
f 22/23/71 21/22/70 49/3/51
f 23/24/72 22/23/71 49/3/51
f 24/75/73 23/24/72 49/3/51
f 1/2/50 24/75/73 49/3/51
s 3
f 74/76/74 75/111/75 76/112/76
f 75/111/75 77/113/77 76/112/76
f 77/113/77 78/114/78 76/112/76
f 78/114/78 79/115/79 76/112/76
f 79/115/79 80/116/80 76/112/76
f 80/116/80 81/117/81 76/112/76
f 81/117/81 82/118/82 76/112/76
f 82/118/82 83/119/83 76/112/76
f 83/119/83 84/120/84 76/112/76
f 84/120/84 85/121/85 76/112/76
f 85/121/85 86/122/86 76/112/76
f 86/122/86 87/123/87 76/112/76
f 87/123/87 88/124/88 76/112/76
f 88/124/88 89/125/89 76/112/76
f 89/125/89 90/126/90 76/112/76
f 90/126/90 91/127/91 76/112/76
f 91/127/91 92/128/92 76/112/76
f 92/128/92 93/129/93 76/112/76
f 93/129/93 94/130/94 76/112/76
f 94/130/94 95/131/95 76/112/76
f 95/131/95 96/132/96 76/112/76
f 96/132/96 97/133/97 76/112/76
f 97/133/97 98/134/98 76/112/76
f 98/134/98 74/76/74 76/112/76
s 4
f 25/49/99 26/50/100 51/51/101 50/52/102
f 26/50/100 27/53/103 52/54/104 51/51/101
f 27/53/103 28/55/105 53/56/106 52/54/104
f 28/55/105 29/57/107 54/58/108 53/56/106
f 29/57/107 30/59/109 55/60/110 54/58/108
f 30/59/109 31/61/111 56/62/112 55/60/110
f 31/61/111 32/63/113 57/64/114 56/62/112
f 32/63/113 33/65/115 58/66/116 57/64/114
f 33/65/115 34/67/117 59/68/118 58/66/116
f 34/67/117 35/69/119 60/70/120 59/68/118
f 35/69/119 36/71/121 61/148/122 60/70/120
f 36/147/121 37/73/123 62/74/124 61/72/122
f 37/73/123 38/89/125 63/90/126 62/74/124
f 38/89/125 39/91/127 64/92/128 63/90/126
f 39/91/127 40/93/129 65/94/130 64/92/128
f 40/93/129 41/95/131 66/96/132 65/94/130
f 41/95/131 42/97/133 67/98/134 66/96/132
f 42/97/133 43/99/135 68/100/136 67/98/134
f 43/99/135 44/101/137 69/102/138 68/100/136
f 44/101/137 45/103/139 70/104/140 69/102/138
f 45/103/139 46/105/141 71/106/142 70/104/140
f 46/105/141 47/107/143 72/108/144 71/106/142
f 47/107/143 48/109/145 73/110/146 72/108/144
f 48/109/145 25/49/99 50/52/102 73/110/146
s 5
f 50/52/147 51/51/148 75/77/149 74/78/150
f 51/51/148 52/54/151 77/79/152 75/77/149
f 52/54/151 53/56/153 78/80/154 77/79/152
f 53/56/153 54/58/155 79/81/156 78/80/154
f 54/58/155 55/60/157 80/82/158 79/81/156
f 55/60/157 56/62/159 81/83/160 80/82/158
f 56/62/159 57/64/161 82/84/162 81/83/160
f 57/64/161 58/66/163 83/85/164 82/84/162
f 58/66/163 59/68/165 84/86/166 83/85/164
f 59/68/165 60/70/167 85/87/168 84/86/166
f 60/70/167 61/148/169 86/151/170 85/87/168
f 61/72/169 62/74/171 87/135/172 86/88/170
f 62/74/171 63/90/173 88/136/174 87/135/172
f 63/90/173 64/92/175 89/137/176 88/136/174
f 64/92/175 65/94/177 90/138/178 89/137/176
f 65/94/177 66/96/179 91/139/180 90/138/178
f 66/96/179 67/98/181 92/140/182 91/139/180
f 67/98/181 68/100/183 93/141/184 92/140/182
f 68/100/183 69/102/185 94/142/186 93/141/184
f 69/102/185 70/104/187 95/143/188 94/142/186
f 70/104/187 71/106/189 96/144/190 95/143/188
f 71/106/189 72/108/191 97/145/192 96/144/190
f 72/108/191 73/110/193 98/146/194 97/145/192
f 73/110/193 50/52/147 74/78/150 98/146/194
